<svg width="77" height="76" viewBox="0 0 77 76" fill="none" xmlns="http://www.w3.org/2000/svg">
<path fill-rule="evenodd" clip-rule="evenodd" d="M57.4962 9.43501C57.4962 4.23582 61.7277 0 66.9217 0C72.1157 0 76.3472 4.23582 76.3472 9.43501C76.3472 14.6342 72.1157 18.87 66.9217 18.87C61.7354 18.87 57.4962 14.6266 57.4962 9.43501ZM31.7784 2.73722C33.4206 1.09336 35.8954 0 38.5 0C43.7169 0 47.9637 4.25111 47.9637 9.45795C47.9637 14.6648 43.7092 18.9159 38.5 18.9159C35.8954 18.9159 33.5657 17.9602 31.7784 16.1787C29.8536 14.2596 27.1115 13.0286 24.2319 13.0286C21.3523 13.0286 18.6101 14.2596 16.6853 16.1787C14.7605 18.0978 13.5308 20.835 13.5308 23.7175C13.5308 26.5924 14.7681 29.3372 16.6853 31.2563C18.6025 33.1755 21.3523 34.4064 24.2319 34.4064C27.1115 34.4064 29.8536 33.1755 31.7784 31.2563C33.4206 29.6125 35.8954 28.5191 38.5 28.5191C43.7169 28.5191 47.9637 32.7702 47.9637 37.9771C47.9637 43.1839 43.7092 47.435 38.5 47.435C35.8954 47.435 33.5657 46.4793 31.7784 44.6978C29.8536 42.7787 27.1115 41.5477 24.2319 41.5477C21.3523 41.5477 18.6101 42.7787 16.6853 44.6978C14.7681 46.6169 13.5308 49.3541 13.5308 52.2366C13.5308 55.1191 14.7681 57.8563 16.6853 59.7755C18.3352 61.4193 19.4274 63.8889 19.4274 66.4885C19.4274 71.6954 15.173 75.9465 9.95608 75.9465C4.75447 75.9235 0.5 71.6801 0.5 66.4656C0.5 63.8584 1.46241 61.534 3.24211 59.7525C5.1593 57.8334 6.39668 55.0962 6.39668 52.2137C6.39668 49.3312 5.1593 46.594 3.24211 44.6749C1.5999 42.8934 0.5 40.569 0.5 37.9618C0.5 36.5932 0.637487 35.3545 1.18744 34.2612C1.73739 33.1678 2.42482 32.0668 3.24975 31.2487C5.16693 29.3296 6.40432 26.5924 6.40432 23.7099C6.40432 20.835 5.16693 18.0901 3.24975 16.171C1.5999 14.5272 0.5 12.0575 0.5 9.45795C0.5 8.08934 0.637487 6.8507 1.18744 5.75734C2.69216 2.33199 5.98422 0 9.96372 0C12.5683 0 14.9056 0.955734 16.6853 2.73722C18.6025 4.65634 21.3523 5.88732 24.2319 5.88732C27.1115 5.88732 29.8536 4.65634 31.7784 2.73722ZM57.6489 37.893C57.6489 32.6785 61.8805 28.4197 67.0745 28.4197C72.2684 28.4197 76.5 32.6708 76.5 37.893C76.5 40.5002 75.4077 42.8398 73.7732 44.6213C71.856 46.5404 70.6262 49.293 70.6262 52.1755C70.6262 55.0579 71.856 57.8028 73.7732 59.7296C75.4077 61.3811 76.5 63.8507 76.5 66.458C76.5 71.6724 72.2684 75.9312 67.0745 75.9312C61.8805 75.9312 57.6489 71.6724 57.6489 66.458C57.6489 63.8507 58.6037 61.5111 60.3834 59.7296C62.293 57.8105 63.5227 55.0579 63.5227 52.1755C63.5227 49.293 62.293 46.5481 60.3834 44.6213C58.7488 42.8322 57.6489 40.5002 57.6489 37.893ZM29.0363 66.4885C29.0363 61.2893 33.2678 57.0535 38.4618 57.0535C43.6558 57.0535 47.8873 61.2893 47.8873 66.4885C47.8873 71.6877 43.6558 75.9235 38.4618 75.9235C33.2755 75.9235 29.0363 71.6877 29.0363 66.4885Z" fill="url(#paint0_linear_2081_1625)"/>
<defs>
<linearGradient id="paint0_linear_2081_1625" x1="0.5" y1="0" x2="77.2855" y2="25.0017" gradientUnits="userSpaceOnUse">
<stop stop-color="#5EA617"/>
<stop offset="1" stop-color="#24A4AE"/>
</linearGradient>
</defs>
</svg>
