<?xml version="1.0" encoding="UTF-8"?>
<svg width="150px" height="150px" viewBox="0 0 150 150" version="1.1" xmlns="http://www.w3.org/2000/svg" xmlns:xlink="http://www.w3.org/1999/xlink">
    <title>Eurotunnel</title>
    <g id="All-clients" stroke="none" stroke-width="1" fill="none" fill-rule="evenodd">
        <g id="Eurotunnel">
            <path d="M29.174913,29.0719905 C41.4138743,16.9351155 57.7799768,10.3020049 75,10.3020049 C92.3624855,10.3020049 108.586979,16.9351155 120.825087,29.0719905 C131.926056,40.2216395 138.47335,54.6163607 139.610489,69.999154 L150,69.999154 C148.861155,51.7934185 141.175868,34.858303 128.083839,21.8746299 C113.852965,7.76161069 95.0667099,0 75,0 C35.1523579,0 2.4192998,31.0481347 0,70 L10.3886576,70 C11.528356,54.6163607 18.0739439,40.2216395 29.174913,29.0719905 L29.174913,29.0719905 Z" id="path3075" fill="#005798"></path>
            <path d="M74.9288364,139.651693 C57.7251524,139.651693 41.3745788,132.988769 29.1472304,120.797345 C17.203684,108.74698 10.5219797,92.8701713 10.2373255,76 L0,76 C0.142327119,95.7041018 7.96264836,114.134422 21.8953654,128.027054 C36.113589,142.203505 54.8811668,150 74.9288364,150 C94.9765061,150 113.744084,142.202655 127.962307,128.027054 C141.896729,114.134422 149.715346,95.7049515 150,76 L139.620347,76 C139.195071,111.157733 110.332494,139.651693 74.9288364,139.651693 L74.9288364,139.651693 Z" id="path3077" fill="#EB513E"></path>
            <path d="M35,70 L49.8596717,70 L49.8596717,64.5709218 C49.8596717,64.5709218 43.4112935,64.4279161 40.6072489,64.4279161 C40.6072489,62.4284054 40.6072489,58.4276714 40.6072489,58.4276714 L50,58.4276714 L50,52.4282831 C50,52.4282831 43.5516218,52.4282831 40.6072489,52.4282831 C40.6072489,50.7139275 40.6072489,47.4282219 40.6072489,47.4282219 L49.8596717,47.4282219 L49.8596717,42 L35,42 L35,70 L35,70 Z" id="path3079" fill="#040506"></path>
            <path d="M99,101.857721 L114,102 L114,96.457082 C114,96.457082 107.551622,96.457082 104.747577,96.457082 C104.747577,94.3246006 104.747577,90.3450479 104.747577,90.3450479 L114,90.3450479 L114,84.3752929 C114,84.3752929 107.551622,84.3752929 104.747577,84.3752929 C104.747577,82.6696486 104.747577,79.400639 104.747577,79.400639 L114,79.400639 L114,74 L99,74 L99,101.857721 L99,101.857721 Z" id="path3081" fill="#040506"></path>
            <path d="M72,42 L72,60.5730466 C72,62.9649979 71.1491903,66.6237725 67.1790284,68.874872 C65.7612955,69.5782878 64.0596761,70 62.3580567,70 C60.7983806,70 59.0967612,69.5782878 57.8209716,69.0157238 C53.992753,66.4829207 53,63.2467016 53,60.5730466 L53,42 L58.9556679,42 L58.9556679,60.5730466 C58.9556679,62.4015905 59.3806478,65.2160974 62.7838866,65.0752455 C66.0451821,65.0752455 66.4701619,62.4015905 66.4701619,60.5730466 L66.4701619,42 L72,42 L72,42 Z" id="path3083" fill="#040506"></path>
            <path d="M53,74 L53,92.6663841 C53,95.070356 52.1491903,98.7475176 48.1790284,100.86837 C46.7612955,101.716881 45.0596761,102 43.3580567,102 C41.7983806,102 40.0967612,101.716881 38.8209716,101.151489 C34.8508097,98.6059579 34,95.3534754 34,92.6663841 L34,74 L39.9548179,74 L39.9548179,92.6663841 C39.9548179,94.3634052 40.3806478,97.1912085 43.7838866,97.1912085 C47.0443321,97.1912085 47.3282187,94.3634052 47.3282187,92.6663841 L47.4701619,74 L53,74 L53,74 Z" id="path3085" fill="#040506"></path>
            <path d="M115,56.285921 C115,65.7148172 110.428193,71 104.571073,71 C98.2858017,71 94,65.7148172 94,56.285921 C94,47.5720487 98.2858017,42 104.571073,42 C111.714361,42.0008563 115,49.0012402 115,56.285921 L115,56.285921 Z M100.142269,56.285921 C100.142269,60.1427686 101.000285,64.9997933 104.571073,64.9997933 C107.714565,64.9997933 108.856875,61.2859505 108.856875,56.285921 C108.856875,52.1430638 107.714565,47.8572019 104.42807,48.0002067 C101.142432,48.0002067 100.142269,52.4290734 100.142269,56.285921 L100.142269,56.285921 Z" id="path3087" fill="#040506"></path>
            <polygon id="polygon3089" fill="#040506" points="15 74 15 79.2860725 21.0408699 79.2860725 21.0408699 102 26.239572 102 26.239572 79.2860725 32 79.2860725 32 74"></polygon>
            <polygon id="polygon3091" fill="#040506" points="122.319866 96.5710878 122.319866 74 117 74 117 96.5710878 117 96.5710878 117 102 131 102 131 96.5710878"></polygon>
            <polygon id="polygon3093" fill="#040506" points="90.7534332 90.2863784 82.3885037 74 82.3885037 74.1430057 82.3885037 74 77 74 77 102 82.3885037 102 82.3885037 85.5723286 90.7534332 102 90.7534332 102 90.7534332 102 90.7534332 102 90.7534332 102 96 102 96 74 90.7534332 74"></polygon>
            <polygon id="polygon3095" fill="#040506" points="69.6522955 90.2863784 61.3477045 74 61.3477045 74.1430057 61.3477045 74 56 74 56 102 61.3477045 102 61.3477045 85.5723286 69.6522955 102 69.6522955 102 69.6522955 102 69.6522955 102 69.6522955 102 75 102 75 74 69.6522955 74"></polygon>
            <path d="M79.8572201,70 L74,70 L74,42.0637389 C74,42.0637389 81.1425545,41.9203263 83.5719308,42.0637389 C86.4286101,42.2071515 89.1431404,43.2093223 90.4284749,45.3587939 C93.7141698,49.9437036 92.142825,56.5338136 86.7146205,58.9692517 C88.2859654,62.2643067 93,70 93,70 L86.2856048,70 C86.2856048,70 82.28574,63.1239236 79.8572201,59.8280098 C79.8572201,60.9744519 79.8572201,61.8340688 79.8572201,63.1230648 C79.8572201,65.1291238 79.8572201,70 79.8572201,70 L79.8572201,70 Z M83.8570849,54.5277546 C85.0002704,54.5277546 85.8574455,52.9519334 85.8574455,51.089287 C85.8574455,49.2266406 85.0002704,47.6508194 83.8570849,47.6508194 L79.4282044,47.6508194 L79.4282044,54.5277546 L83.8570849,54.5277546 L83.8570849,54.5277546 Z" id="path3097" fill="#040506"></path>
        </g>
    </g>
</svg>