<?xml version="1.0" encoding="UTF-8"?>
<svg width="150px" height="127px" viewBox="0 0 150 127" version="1.1" xmlns="http://www.w3.org/2000/svg" xmlns:xlink="http://www.w3.org/1999/xlink">
    <title>General_Medical_Council_logo</title>
    <g id="All-clients" stroke="none" stroke-width="1" fill="none" fill-rule="evenodd">
        <g id="General_Medical_Council_logo" transform="translate(0.000000, -0.000000)" fill="#1E2E51" fill-rule="nonzero">
            <path d="M29.9926504,30.808474 C26.6377209,31.9084489 22.6778111,33.7875699 17.6546039,33.7875699 C7.23233239,33.7875699 0.247497298,27.4535445 0.247497298,17.4071066 C0.247497298,7.51648378 7.26900995,0.779145992 17.8104425,0.779145992 C24.1444444,0.779145992 27.6643642,2.29160862 29.8734894,3.67575844 C29.8277304,4.9040462 29.4976558,6.08652808 28.7276851,7.51648378 L27.9851932,7.51648378 C26.0694181,5.10571414 22.760318,3.10743218 17.8562718,3.10743218 C9.80811587,3.10743218 5.22487516,9.31312128 5.22487516,17.2421162 C5.22487516,25.4552625 10.6239394,31.3401227 18.1771008,31.3401227 C20.7162067,31.3401227 23.8236389,30.5242991 25.6202529,29.4610017 C25.6202529,25.9044043 25.409527,19.7353928 25.3269262,17.8195943 L30.148489,17.8195943 C30.0752747,20.3495249 29.9926739,29.0118365 29.9926739,30.808474" id="path107"></path>
            <path d="M54.1829476,22.3111528 L39.2232882,22.3111528 C39.5074396,28.7643392 42.9815301,31.4226061 47.1889373,31.4226061 C50.6996818,31.4226061 53.1563043,29.6259921 53.9721044,28.0310225 L54.6320894,28.0310225 C54.8336634,29.0118365 54.8704114,30.1576408 54.3845921,30.8909574 C53.6512754,31.9909324 50.7913406,33.7875699 46.3364596,33.7875699 C37.9124701,33.7875699 34.7317062,27.7835252 34.7317062,22.7144887 C34.7317062,16.6279606 38.3616353,10.743077 45.3098163,10.743077 C53.687953,10.743077 54.9529183,17.48959 54.787928,21.9444945 L54.1829476,22.3111528 Z M45.5572901,12.7505342 C42.6515259,12.7505342 39.67243,15.115498 39.2691176,20.1845345 L50.5438433,20.1845345 C50.9930085,16.4262926 49.3155555,12.7505342 45.5572901,12.7505342" id="path109"></path>
            <path d="M74.3216528,33.2192436 C74.4408607,31.0926254 74.6424817,22.0270014 74.6424817,20.3495249 C74.6424817,16.4629467 73.056664,13.6488647 69.380929,13.6488647 C67.2084814,13.6488647 63.413562,15.4454787 63.413562,21.1286944 C63.413562,22.2744987 63.615136,31.6701034 63.6610593,33.2192436 L59.1603255,33.2192436 C59.3252924,30.4784697 59.4078228,21.9444945 59.4078228,20.5511929 C59.4078228,19.1670665 59.2886148,13.4013674 59.2428559,11.3205785 L63.7802437,11.3205785 L63.6610358,14.5013423 C64.7610107,12.5855438 67.1717804,10.743077 70.8475388,10.743077 C75.3024432,10.743077 78.8131878,13.6030119 78.8131878,18.589565 C78.8131878,20.4687094 78.6482209,26.1519016 78.6482209,26.9677252 C78.6482209,27.7835252 78.7305871,32.4400976 78.8131878,33.2192436 L74.3216528,33.2192436 Z" id="path111"></path>
            <path d="M102.966831,22.3111528 L88.0071716,22.3111528 C88.291323,28.7643392 91.7745887,31.4226061 95.9819958,31.4226061 C99.4927404,31.4226061 101.940188,29.6259921 102.755988,28.0310225 L103.415973,28.0310225 C103.617547,29.0118365 103.66347,30.1576408 103.168499,30.8909574 C102.435182,31.9909324 99.5752474,33.7875699 95.1203429,33.7875699 C86.7055287,33.7875699 83.515613,27.7835252 83.515613,22.7144887 C83.515613,16.6279606 87.1546939,10.743077 94.1028514,10.743077 C102.471836,10.743077 103.736802,17.48959 103.580987,21.9444945 L102.966831,22.3111528 Z M94.3411969,12.7505342 C91.4354327,12.7505342 88.4563133,15.115498 88.0530009,20.1845345 L99.3277501,20.1845345 C99.7768918,16.4262926 98.0994388,12.7505342 94.3411969,12.7505342" id="path113"></path>
            <path d="M119.228133,15.5646397 L118.568148,15.5646397 C118.247319,14.6296552 117.669818,14.0980065 116.689004,14.0980065 C113.994083,14.0980065 112.362436,16.8754579 112.362436,21.1286944 C112.362436,22.2744987 112.56401,31.6701034 112.609933,33.2192436 L108.109199,33.2192436 C108.274166,30.4784697 108.356696,21.9444945 108.356696,20.5511929 C108.356696,19.1670665 108.237489,13.4013674 108.19173,11.3205785 L112.729117,11.3205785 L112.609909,14.7488396 C113.306572,12.9980315 115.304854,10.743077 118.247296,10.743077 C119.145603,10.743077 119.842242,11.0730812 120.373914,11.5680758 C120.328155,12.7872118 119.924749,14.3455038 119.22811,15.5646397" id="path115"></path>
            <path d="M138.514361,33.4209115 C136.305236,33.4209115 135.571919,32.5684339 135.076924,30.927635 C133.197803,32.8067559 131.117014,33.7875699 128.174596,33.7875699 C123.316356,33.7875699 121.473912,30.6892895 121.473912,28.0310225 C121.473912,21.1286944 129.357055,21.6145137 134.792773,19.5703789 L134.792773,17.9021012 C134.792773,14.91383 132.666155,13.1538701 129.97121,13.1538701 C127.239612,13.1538701 125.479652,14.7121621 124.453008,16.6279606 L123.765521,16.6279606 C123.316356,15.5646397 123.233872,13.7313481 123.765521,13.2822064 C125.516306,11.7697203 127.807938,10.743077 131.245351,10.743077 C136.433572,10.743077 138.881019,14.0521771 138.881019,17.9021012 C138.881019,19.6162083 138.716052,27.3802128 138.716052,28.9293296 C138.716052,30.7717964 139.247724,31.505113 140.063524,31.505113 C140.595173,31.505113 140.961831,31.3859051 141.410997,31.0926254 L141.410997,32.724249 C140.760187,33.1000826 139.284378,33.4209115 138.514408,33.4209115 M134.79282,21.8161582 C130.182077,22.9253084 125.800528,23.3286443 125.800528,27.6185349 C125.800528,30.0751573 127.477981,31.4592837 129.604599,31.4592837 C131.364559,31.4592837 132.950353,30.6892895 134.79282,28.5168419 L134.79282,21.8161582 Z" id="path117"></path>
            <path d="M145.499196,33.2192436 C145.664163,30.4784697 145.746693,17.2421162 145.746693,15.8579664 C145.746693,14.4646648 145.618333,2.08078889 145.581726,0 L149.908294,0 C149.871687,2.08078889 149.752479,14.4646648 149.752479,15.8579664 C149.752479,17.2421162 149.825694,30.4784697 149.990801,33.2192436 L145.499196,33.2192436 Z" id="path119"></path>
            <path d="M29.6259921,79.684016 C29.048514,71.6725376 28.4343584,64.889347 27.5818808,57.2078729 C23.6953026,65.2193512 20.7162067,71.7916987 16.9212872,79.684016 L16.1421412,79.684016 C12.3838994,72.0025184 8.82730194,64.8068636 5.02323069,57.2078729 C4.65657237,62.1119191 4.08824611,71.7916987 3.67575844,79.684016 L0,79.684016 C1.18248188,68.6934417 2.12661824,58.2711702 3.35492948,47.399757 L4.45490443,47.399757 C8.54315054,55.6129033 12.8697187,63.7435427 17.572097,72.2041863 C21.862011,64.0368694 25.4552625,56.3095424 29.7909825,47.399757 L30.6801377,47.399757 C31.9084489,58.2345161 33.1367602,68.8126028 34.4017255,79.684016 L29.6259921,79.684016 Z" id="path121"></path>
            <path d="M57.2903563,68.7759252 L42.3306969,68.7759252 C42.6148718,75.2291116 46.0889623,77.887402 50.2963694,77.887402 C53.8162893,77.887402 56.263713,76.0815892 57.0795366,74.4957949 L57.7303463,74.4957949 C57.9413068,75.4766089 57.9778436,76.6224132 57.4920243,77.3557298 C56.7495558,78.4557048 53.8987727,80.2523423 49.4438683,80.2523423 C41.0199023,80.2523423 37.8391384,74.2482976 37.8391384,69.1792611 C37.8391384,63.092733 41.4690675,57.2078729 48.417225,57.2078729 C56.7953852,57.2078729 58.0603505,63.9543859 57.8953601,68.4092669 L57.2903563,68.7759252 Z M48.6647223,59.2153066 C45.7589581,59.2153066 42.7798622,61.5802704 42.3673745,66.6493069 L53.6512754,66.6493069 C54.1004407,62.8910651 52.4229877,59.2153066 48.6647223,59.2153066" id="path123"></path>
            <path d="M78.9415476,79.684016 C78.9781548,79.1523673 78.9781548,78.006563 79.0239137,76.7782518 C77.5114511,79.1890214 75.2198425,80.2523423 72.3599076,80.2523423 C64.2750975,80.2523423 61.8184751,73.3041613 61.8184751,68.7667734 C61.8184751,63.0560554 65.6225698,57.2078729 72.7723953,57.2078729 C76.035666,57.2078729 78.1256067,58.6836579 79.1889276,60.1869688 C79.1431686,56.1903814 79.0605678,48.0963961 79.0239606,46.4647724 L83.3505288,46.4647724 C83.3139216,48.5455613 83.1947137,60.9294372 83.1947137,62.313587 C83.1947137,63.7068886 83.267928,76.9432422 83.4330357,79.684016 L78.9415476,79.684016 Z M72.9741805,59.4536521 C69.5459194,59.4536521 66.4751648,63.0560554 66.4751648,68.7300958 C66.4751648,73.9641463 68.601783,77.9240561 72.7725126,77.9240561 C77.3099005,77.9240561 79.3082059,73.3499906 79.3082059,68.5284279 C79.3082059,62.1119191 76.6499155,59.4536521 72.9741805,59.4536521" id="path125"></path>
            <path d="M91.8570722,53.1654561 C90.3354577,53.1654561 89.070469,51.9004908 89.070469,50.3788529 C89.070469,48.875542 90.3354577,47.6472543 91.8570722,47.6472543 C93.360383,47.6472543 94.5886942,48.875542 94.5886942,50.3788529 C94.5886942,51.9004908 93.360383,53.1654561 91.8570722,53.1654561 M89.4829566,79.684016 C89.6479235,76.9432422 89.7304539,68.4092669 89.7304539,67.0159653 C89.7304539,65.6226637 89.611246,59.8661398 89.565487,57.7761756 L94.1395525,57.7761756 C94.1029453,59.8661398 93.9745856,65.6226637 93.9745856,67.0159653 C93.9745856,68.4092669 94.0569517,76.9432422 94.2220829,79.684016 L89.4829566,79.684016 Z" id="path127"></path>
            <path d="M118.494817,77.3557298 C117.7615,78.4557048 114.974897,80.2523423 110.529144,80.2523423 C101.73852,80.2523423 99.1627362,73.3499906 99.1627362,68.7759252 C99.1627362,61.7819148 104.030128,57.2078729 111.179977,57.2078729 C114.24158,57.2078729 116.65235,58.0236729 118.696461,59.5361356 C118.659854,60.7644468 118.283973,61.6994314 117.596486,62.9277426 L116.899847,62.9277426 C115.919033,61.213612 114.204903,59.3344911 111.299138,59.3344911 C106.770902,59.3344911 103.819309,62.9277426 103.819309,68.6109348 C103.819309,74.6608088 106.844234,77.887402 111.381645,77.887402 C114.654068,77.887402 117.477325,75.7607837 118.128158,74.4957949 L118.778968,74.4957949 C118.980542,75.4766089 118.898176,76.7415742 118.494817,77.3557298" id="path129"></path>
            <path d="M138.514361,79.885684 C136.305236,79.885684 135.571919,79.024031 135.0861,77.3924074 C133.206979,79.2715283 131.117014,80.2523423 128.174596,80.2523423 C123.316356,80.2523423 121.473912,77.1449101 121.473912,74.4957949 C121.473912,67.5842915 129.36623,68.0792861 134.792773,66.0351513 L134.792773,64.3576983 C134.792773,61.3786024 132.675306,59.6186425 129.980385,59.6186425 C127.239612,59.6186425 125.479652,61.1769345 124.46216,63.092733 L123.765521,63.092733 C123.316356,62.0294121 123.233872,60.1961205 123.765521,59.7378035 C125.516306,58.2345161 127.807938,57.2078729 131.245351,57.2078729 C136.433572,57.2078729 138.881019,60.5169495 138.881019,64.3576983 C138.881019,66.0718289 138.716052,73.83581 138.716052,75.3941254 C138.716052,77.227417 139.247724,77.9607337 140.063524,77.9607337 C140.595173,77.9607337 140.971007,77.8415257 141.420172,77.5573978 L141.420172,79.1890214 C140.760187,79.564855 139.293554,79.885684 138.514408,79.885684 M134.79282,68.2809541 C130.182077,69.3900808 125.809679,69.7934167 125.809679,74.0833073 C125.809679,76.5399297 127.477981,77.9240561 129.604599,77.9240561 C131.364559,77.9240561 132.959528,77.1449101 134.79282,74.9816143 L134.79282,68.2809541 Z" id="path131"></path>
            <path d="M145.499196,79.684016 C145.664163,76.9432422 145.746693,63.7068886 145.746693,62.313587 C145.746693,60.9294372 145.618333,48.5455613 145.581726,46.4647724 L149.91747,46.4647724 C149.871711,48.5455613 149.752503,60.9294372 149.752503,62.313587 C149.752503,63.7068886 149.834869,76.9432422 150,79.684016 L145.499196,79.684016 Z" id="path133"></path>
            <path d="M30.7717964,121.776391 C29.4243241,123.774673 25.0886042,126.717115 19.0845596,126.717115 C5.35321144,126.717115 1.79663749,116.908999 1.79663749,110.327476 C1.79663749,99.3369019 9.92727689,93.699539 18.8004082,93.699539 C24.8869363,93.699539 28.0310225,95.4594989 30.1118114,96.7611184 C30.0752043,97.9894296 29.6718214,99.3827312 28.9751824,100.611042 L28.2418657,100.611042 C26.3169154,97.9894296 23.0078153,96.0278017 18.8370858,96.0278017 C10.6697688,96.0278017 6.86567407,102.856822 6.86567407,110.089154 C6.86567407,116.496511 10.7522522,124.306345 19.6528858,124.306345 C24.8411069,124.306345 29.2135044,121.116406 30.4418156,118.751466 L31.0559713,118.751466 C31.0925784,119.521436 31.0193641,121.400557 30.7717964,121.776391" id="path135"></path>
            <path d="M44.9523098,126.717115 C36.1616854,126.717115 33.5950772,119.814763 33.5950772,115.231546 C33.5950772,108.94335 37.5916411,103.672645 44.9523098,103.672645 C52.3038032,103.672645 56.3095658,108.94335 56.3095658,115.231546 C56.3095658,119.814763 53.7337824,126.717115 44.9523098,126.717115 M44.9523098,105.670927 C40.3690925,105.670927 38.2516261,110.290822 38.2516261,115.066555 C38.2516261,120.50225 40.4149219,124.590496 44.9523098,124.590496 C49.4805459,124.590496 51.6529935,120.50225 51.6529935,115.066555 C51.6529935,110.290822 49.5263752,105.670927 44.9523098,105.670927" id="path137"></path>
            <path d="M79.9223615,116.908999 C79.9223615,118.3023 80.0507213,124.058848 80.0873284,126.148788 L75.5499171,126.148788 L75.6782768,122.958873 C74.5691501,124.874648 72.1217029,126.717115 68.4459444,126.717115 C63.99104,126.717115 60.5169495,123.85718 60.5169495,118.870627 C60.5169495,116.991506 60.6819164,111.30829 60.6819164,110.49249 C60.6819164,108.94335 60.5993156,105.799264 60.5169495,104.240948 L65.0085315,104.240948 C64.8893236,106.367566 64.6877025,115.442366 64.6877025,117.110667 C64.6877025,120.997245 66.2368193,123.820502 69.9125777,123.820502 C72.0758735,123.820502 75.9165989,122.014713 75.9165989,116.340673 C75.9165989,115.194868 75.7150248,105.799264 75.6782768,104.240948 L80.1698354,104.240948 C80.0048684,106.981722 79.9223615,115.524872 79.9223615,116.908999" id="path139"></path>
            <path d="M100.766881,126.148788 C100.886089,124.02217 101.08771,114.947371 101.08771,113.279093 C101.08771,109.392515 99.5019157,106.569234 95.816982,106.569234 C93.6537097,106.569234 89.8496149,108.365872 89.8496149,114.049064 C89.8496149,115.194868 90.0605755,124.590496 90.0971122,126.148788 L85.6055537,126.148788 C85.7705206,123.408015 85.853051,114.864887 85.853051,113.480738 C85.853051,112.087436 85.7246913,106.330912 85.6789323,104.240948 L90.2254955,104.240948 L90.0971357,107.430887 C91.2062859,105.515089 93.6079038,103.672645 97.292814,103.672645 C101.747718,103.672645 105.258463,106.53258 105.258463,111.519133 C105.258463,113.398254 105.093496,119.072295 105.093496,119.89727 C105.093496,120.713094 105.175862,125.369642 105.258463,126.148788 L100.766881,126.148788 Z" id="path141"></path>
            <path d="M128.587084,109.346686 L127.890421,109.346686 C126.955437,107.513394 124.948003,105.670927 122.051391,105.670927 C117.514003,105.670927 114.369893,109.392515 114.369893,115.075707 C114.369893,121.409733 118.210642,124.342999 122.133897,124.342999 C125.314661,124.342999 128.101264,122.711375 128.999572,120.951416 L129.650381,120.951416 C129.815348,121.858898 129.778741,123.160517 129.36623,123.81135 C128.88041,124.50799 126.790446,126.717115 121.272245,126.717115 C113.554093,126.717115 109.713344,120.832255 109.713344,115.231546 C109.713344,110.822471 112.289104,103.672645 121.72141,103.672645 C125.928793,103.672645 127.890421,104.690113 129.696211,105.964254 C129.650452,107.18339 129.283723,108.127526 128.587084,109.346686" id="path143"></path>
            <path d="M136.763553,99.6302285 C135.25109,99.6302285 133.986125,98.3560879 133.986125,96.8528005 C133.986125,95.3311627 135.25109,94.1120267 136.763553,94.1120267 C138.276015,94.1120267 139.504326,95.3311627 139.504326,96.8528005 C139.504326,98.3560879 138.276015,99.6302285 136.763553,99.6302285 M134.389437,126.148788 C134.554404,123.408015 134.636934,114.864887 134.636934,113.480738 C134.636934,112.087436 134.517726,106.330912 134.471967,104.240948 L139.046033,104.240948 C139.009426,106.330912 138.881066,112.087436 138.881066,113.480738 C138.881066,114.864887 138.963432,123.408015 139.12854,126.148788 L134.389437,126.148788 Z" id="path145"></path>
            <path d="M145.508348,126.148788 C145.673315,123.408015 145.746693,110.171661 145.746693,108.778359 C145.746693,107.385058 145.627485,95.0103337 145.581726,92.920393 L149.91747,92.920393 C149.880862,95.0103337 149.752503,107.385058 149.752503,108.778359 C149.752503,110.171661 149.834869,123.408015 150,126.148788 L145.508348,126.148788 Z" id="path147"></path>
        </g>
    </g>
</svg>