<?xml version="1.0" encoding="UTF-8"?>
<svg width="166px" height="50px" viewBox="0 0 166 50" version="1.1" xmlns="http://www.w3.org/2000/svg" xmlns:xlink="http://www.w3.org/1999/xlink">
    <title>Gousto_logo</title>
    <g id="All-clients" stroke="none" stroke-width="1" fill="none" fill-rule="evenodd">
        <g id="Gousto_logo" transform="translate(0.000000, 0.000000)" fill="#FF0032">
            <path d="M133.715986,27.5003064 C133.430159,26.7857726 133.144928,26.5717056 132.715626,26.5717056 C132.430372,26.5717056 132.216305,26.6429143 131.715838,26.8569371 C130.787215,27.2862395 129.572788,27.6432309 128.430098,27.6432309 C126.144718,27.6432309 124.715628,26.9292702 124.715628,24.4286551 L124.715628,11.3568803 L131.572936,11.3568803 C132.715626,11.3568803 133.144928,10.9287243 133.144928,9.78546126 L133.144928,7.50008157 C133.144928,6.35681853 132.715626,5.92866257 131.572936,5.92866257 L124.715628,5.92866257 L124.715628,1.571419 C124.715628,0.428133909 124.287494,0 123.144231,0 L120.28722,0 C119.14453,0 118.715801,0.428133909 118.715801,1.571419 L118.715801,24.2857307 C118.715801,30.7860468 122.644338,33.2143289 128.001369,33.2143289 C130.001517,33.2143289 132.430372,32.5715328 134.14412,31.7146697 C134.715752,31.4288429 134.930414,31.1430382 134.930414,30.7860468 C134.930414,30.4290775 134.858764,30.2855799 134.715686,29.8574239 L133.715986,27.5003064 Z M29.5004546,3.64270969 C29.0723207,3.21398053 28.7859207,3.07165136 28.4289514,3.07165136 C28.0007954,3.07165136 27.7143954,3.21406872 27.2145017,3.71387427 L22.8572581,7.78590835 C20.5001186,6.14272953 17.5719649,5.21412868 14.4285537,5.21412868 C6.64264531,5.21412868 0.142924415,10.9998889 0.142924415,19.2139312 C0.142924415,27.4285687 6.64264531,33.2143289 14.4285537,33.2143289 C22.21444,33.2143289 28.7147561,27.4285687 28.7147561,19.2139312 C28.7147561,16.6427467 28.07196,14.2856293 27.0004347,12.2860763 L31.4294382,7.99997531 C31.9287587,7.57124616 32.0004965,7.14311225 32.0004965,6.85669022 C32.0004965,6.42855631 31.8576382,6.21448936 31.3577004,5.64285784 L29.5004546,3.64270969 Z M47.357651,5.21412868 C39.5723379,5.21412868 33.0720217,10.9998889 33.0720217,19.2139312 C33.0720217,27.4285687 39.5723379,33.2143289 47.357651,33.2143289 C55.1435593,33.2143289 61.6432802,27.4285687 61.6432802,19.2139312 C61.6432802,10.9998889 55.1435593,5.21412868 47.357651,5.21412868 Z M106.000996,16.5715821 C102.286548,15.2142301 100.643965,14.8572608 100.643965,12.7853748 C100.643965,10.9287243 102.144219,10.2141904 104.21551,10.2141904 C105.858093,10.2141904 107.358348,10.6429196 109.144407,11.8573472 C109.501398,12.0714141 109.787203,12.3572409 110.215932,12.3572409 C110.501164,12.3572409 110.78699,12.2143827 111.072817,11.7855874 L112.430147,9.85719904 C112.787139,9.28556752 112.930041,9.07150057 112.930041,8.78567378 C112.930041,8.35694463 112.715313,8.14287768 112.21608,7.78590835 C109.858963,6.14272953 107.644152,5.21412868 103.930278,5.21412868 C99.3583723,5.21412868 94.8582043,7.92821548 94.8582043,13.214104 C94.8582043,17.2855428 96.9300903,19.1427666 102.144219,21.1429147 C105.358795,22.3573423 107.929979,23.2142054 107.929979,25.4290158 C107.929979,27.2862395 106.43032,28.2148624 104.072612,28.2148624 C102.001317,28.2148624 100.001168,27.4285687 97.7152156,25.3572559 C97.3582242,25.0714512 97.0729926,24.7856244 96.6436903,24.7856244 C96.2155343,24.7856244 96.0014674,25.0003527 95.6439028,25.4290158 L94.0013192,27.3574041 C93.7865909,27.6432309 93.5726121,27.9284624 93.5726121,28.286027 C93.5726121,28.6429963 93.7866791,28.9288231 94.2154082,29.3575522 C96.7154281,31.8575721 100.144071,33.2143289 103.930278,33.2143289 C110.144194,33.2143289 113.929806,29.8574239 113.929806,24.9285488 C113.929806,20.2142918 110.715253,18.2859035 106.000996,16.5715821 L106.000996,16.5715821 Z M151.430258,5.21412868 C143.64435,5.21412868 137.001705,10.9998889 137.001705,19.2139312 C137.001705,27.4285687 143.64435,33.2143289 151.430258,33.2143289 C159.216167,33.2143289 165.85879,27.4285687 165.85879,19.2139312 C165.85879,10.9998889 159.216167,5.21412868 151.430258,5.21412868 Z M88.2867236,5.92866257 L85.4297124,5.92866257 C84.2870226,5.92866257 83.8577202,6.35681853 83.8577202,7.50008157 L83.8577202,21.499884 C83.8577202,25.9289095 81.2153712,27.6432309 78.0007954,27.6432309 C74.7156503,27.6432309 72.1432754,25.9289095 72.1432754,21.499884 L72.1432754,7.50008157 C72.1432754,6.35681853 71.7151415,5.92866257 70.5724516,5.92866257 L67.7154404,5.92866257 C66.5721774,5.92866257 66.1434482,6.35681853 66.1434482,7.50008157 L66.1434482,21.499884 C66.1434482,29.0711522 71.2870076,33.2143289 78.0007954,33.2143289 C84.7151785,33.2143289 89.8587158,29.0711522 89.8587158,21.499884 L89.8587158,7.50008157 C89.8587158,6.35681853 89.4294135,5.92866257 88.2867236,5.92866257 L88.2867236,5.92866257 Z M14.4285537,27.6432309 C9.78546126,27.6432309 6.0004224,23.8570236 6.0004224,19.2139312 C6.0004224,14.571434 9.78546126,10.7858219 14.4285537,10.7858219 C19.071624,10.7858219 22.8572581,14.571434 22.8572581,19.2139312 C22.8572581,23.8570236 19.071624,27.6432309 14.4285537,27.6432309 Z M47.357651,27.6432309 C42.7145806,27.6432309 38.9289465,23.8570236 38.9289465,19.2139312 C38.9289465,14.571434 42.7145806,10.7858219 47.357651,10.7858219 C52.0007213,10.7858219 55.7863554,14.571434 55.7863554,19.2139312 C55.7863554,23.8570236 52.0007213,27.6432309 47.357651,27.6432309 Z M151.430258,27.6432309 C146.787166,27.6432309 143.001554,23.8570236 143.001554,19.2139312 C143.001554,14.571434 146.787166,10.7858219 151.430258,10.7858219 C156.073329,10.7858219 159.858963,14.571434 159.858963,19.2139312 C159.858963,23.8570236 156.073329,27.6432309 151.430258,27.6432309 Z M27.4285687,34.7857479 L24.4292503,34.7857479 C23.2859652,34.7857479 22.9284007,35.214477 22.9284007,36.2142424 C22.7143337,40.7144104 19.2145264,44.4288799 14.4285537,44.4288799 C9.78546126,44.4288799 6.14275157,40.7144104 5.92868462,36.2142424 C5.92868462,35.214477 5.57169325,34.7857479 4.4290034,34.7857479 L1.42851663,34.7857479 C0.356991369,34.7857479 0,35.214477 0,36.1430779 C0,43.6431815 6.28565394,50 14.4285537,50 C22.5714313,50 28.8570853,43.6431815 28.8570853,36.1430779 C28.8570853,35.214477 28.5000939,34.7857479 27.4285687,34.7857479 Z" id="Shape"></path>
        </g>
    </g>
</svg>