<?xml version="1.0" encoding="UTF-8"?>
<svg width="225px" height="96px" viewBox="0 0 225 96" version="1.1" xmlns="http://www.w3.org/2000/svg" xmlns:xlink="http://www.w3.org/1999/xlink">
    <title>home-office-seeklogo</title>
    <g id="All-clients" stroke="none" stroke-width="1" fill="none" fill-rule="evenodd">
        <g id="home-office-seeklogo" fill-rule="nonzero">
            <rect id="Rectangle" fill="#7F3F98" x="0" y="0" width="4" height="95"></rect>
            <path d="M35,4 L35,5.70833333 C35.9545455,5.75 36.6363636,5.91666667 37,6 C36.8181818,5 36.0454545,4.25 35,4" id="Path" fill="#000000"></path>
            <path d="M34.0754717,3.40659341 L34.0754717,3.40659341 C34.0754717,4.17582418 33.9339623,4.67032967 33.745283,5 C33.745283,5 34.0754717,4.89010989 34.5,4.89010989 C34.7830189,4.89010989 35.2075472,5 35.254717,5 C35.0660377,4.67032967 34.9245283,4.17582418 34.9245283,3.40659341 L34.9245283,3.40659341 C36.3867925,3.40659341 36.7169811,4.17582418 36.7169811,4.83516484 L37,4.83516484 L37,2.91208791 L37,0.989010989 L36.7169811,0.989010989 C36.7169811,1.64835165 36.3396226,2.41758242 34.9245283,2.41758242 C34.9245283,0.714285714 35.5849057,0.32967033 36.1509434,0.32967033 L36.1509434,0 L34.5,0 L32.8490566,0 L32.8490566,0.32967033 C33.4150943,0.32967033 34.0754717,0.769230769 34.0754717,2.41758242 C32.6132075,2.41758242 32.2830189,1.64835165 32.2830189,0.989010989 L32,0.989010989 L32,2.91208791 L32,4.83516484 L32.2830189,4.83516484 C32.2830189,4.17582418 32.6132075,3.40659341 34.0754717,3.40659341" id="Path" fill="#000000"></path>
            <path d="M34,4 C33,4.25 32.2272727,5.04166667 32,6 C32.3636364,5.91666667 33.0454545,5.75 34,5.70833333 L34,4 Z" id="Path" fill="#000000"></path>
            <path d="M35,52.5 C35,53.3076923 35.6923077,54 36.5,54 C37.3076923,54 38,53.3076923 38,52.5 C38,51.6923077 37.3076923,51 36.5,51 C35.6346154,51.0576923 35,51.6923077 35,52.5 M35.75,52.5 C35.75,52.0961538 36.0961538,51.75 36.5,51.75 C36.9038462,51.75 37.25,52.0961538 37.25,52.5 C37.25,52.9038462 36.9038462,53.25 36.5,53.25 C36.0384615,53.25 35.75,52.9615385 35.75,52.5" id="Shape" fill="#000000"></path>
            <path d="M33,35.1311475 C33,34.4918033 32.5375723,34 31.9364162,34 L31.7514451,34 L25.9248555,34 C25.416185,34 25,34.442623 25,34.9836066 C25,35.3770492 25.2774566,35.6721311 25.6473988,35.6721311 C26.017341,35.6721311 26.2947977,35.3770492 26.2947977,34.9344262 C26.433526,35.0819672 26.5722543,35.1803279 26.7572254,35.2786885 C26.6647399,35.6721311 26.5722543,36.2131148 26.5260116,36.852459 C26.433526,36.704918 26.2947977,36.6557377 26.1560694,36.6557377 C25.9248555,36.6557377 25.6936416,36.852459 25.6936416,37.147541 C25.6936416,37.3934426 25.8786127,37.6393443 26.1560694,37.6393443 C26.2947977,37.6393443 26.433526,37.5409836 26.5260116,37.442623 C26.5260116,37.7868852 26.5260116,38.1311475 26.5722543,38.5245902 C26.4797688,38.4754098 26.3872832,38.4262295 26.2947977,38.4262295 C26.0635838,38.4262295 25.8323699,38.6229508 25.8323699,38.9180328 C25.8323699,39.1639344 26.017341,39.4098361 26.2947977,39.4098361 C26.433526,39.4098361 26.6184971,39.3114754 26.6647399,39.1639344 C26.6647399,39.2131148 26.6647399,39.2622951 26.7109827,39.3114754 C26.8034682,39.6065574 26.8959538,39.9016393 26.9884393,40.147541 C26.9421965,40.0983607 26.849711,40.0983607 26.7572254,40.0983607 C26.5260116,40.0983607 26.2947977,40.295082 26.2947977,40.5901639 C26.2947977,40.8360656 26.4797688,41.0819672 26.7572254,41.0819672 C26.9884393,41.0819672 27.1734104,40.8852459 27.2196532,40.6885246 C27.3583815,40.9836066 27.5433526,41.2786885 27.7745665,41.5737705 C27.7283237,41.5737705 27.7283237,41.5737705 27.6820809,41.5737705 C27.4508671,41.5737705 27.2196532,41.7704918 27.2196532,42.0655738 C27.2196532,42.3606557 27.4046243,42.557377 27.6820809,42.557377 C27.9132948,42.557377 28.1445087,42.3606557 28.1445087,42.0655738 C28.1445087,42.0655738 28.1445087,42.0655738 28.1445087,42.0163934 C28.8381503,42.7540984 29.716763,43.3934426 30.7803468,43.8360656 L30.5953757,45.3114754 C30.5953757,45.3114754 31.0115607,45.5081967 31.6589595,45.704918 C32.3063584,45.9016393 32.9075145,46 32.9075145,46 L33,35.1311475 Z M27.5433526,35.7213115 C27.5433526,35.7213115 27.5895954,35.7213115 27.6358382,35.7704918 L30.9190751,42.852459 C26.849711,40.8852459 27.265896,37.3442623 27.5433526,35.7213115 M31.0115607,42.3114754 L28.0057803,35.8688525 C28.1907514,35.9180328 28.3757225,35.9180328 28.5606936,35.9180328 L31.150289,41.4754098 L31.0115607,42.3114754 Z M31.1965318,40.8852459 L28.8843931,35.8688525 C29.0693642,35.8688525 29.2080925,35.8196721 29.3468208,35.7704918 L31.2890173,40 L31.1965318,40.8852459 Z M31.3815029,39.4590164 L29.6242775,35.7213115 C29.7630058,35.6721311 29.9017341,35.6229508 30.0404624,35.5245902 L31.4739884,38.5737705 L31.3815029,39.4590164 Z M31.566474,38.0327869 L30.3179191,35.3770492 C30.4566474,35.2786885 30.5953757,35.1803279 30.6878613,35.0819672 L31.6589595,37.147541 L31.566474,38.0327869 Z M31.8901734,35.5737705 L31.7514451,36.6557377 L30.9653179,34.9344262 C31.0578035,34.8852459 31.150289,34.8852459 31.2427746,34.8852459 C31.6127168,34.8360656 31.9364162,35.1803279 31.8901734,35.5737705" id="Shape" fill="#000000"></path>
            <path d="M29,8.99683442 C29,8.4651894 29.4666667,8 30,8 C30.5333333,8 31,8.4651894 31,8.99683442 C31,9.59493508 30.5333333,9.99366885 30,9.99366885 C29.4666667,10.0601245 29,9.59493508 29,8.99683442" id="Path" fill="#000000"></path>
            <path d="M20,14 C20,13.4666667 20.4666667,13 21,13 C21.6,13 22,13.4666667 22,14 C22,14.6 21.5333333,15 21,15 C20.4666667,15 20,14.5333333 20,14" id="Path" fill="#000000"></path>
            <path d="M19,11.9968344 C19,11.3987338 19.4666667,11 20,11 C20.5333333,11 21,11.4651894 21,11.9968344 C21,12.5284794 20.5333333,12.9936688 20,12.9936688 C19.4666667,13.0601245 19,12.5949351 19,11.9968344" id="Path" fill="#000000"></path>
            <path d="M20,10 C20,9.46666667 20.4666667,9 21,9 C21.6,9 22,9.46666667 22,10 C22,10.5333333 21.5333333,11 21,11 C20.4666667,11 20,10.5333333 20,10" id="Path" fill="#000000"></path>
            <path d="M21,7.99683442 C21,7.4651894 21.4666667,7 22,7 C22.6,7 23,7.4651894 23,7.99683442 C23,8.52847945 22.5333333,8.99366885 22,8.99366885 C21.4666667,9.06012447 21,8.59493508 21,7.99683442" id="Path" fill="#000000"></path>
            <path d="M22,6.99683442 C22,6.4651894 22.4666667,6 23,6 C23.5333333,6 24,6.4651894 24,6.99683442 C24,7.59493508 23.5333333,7.99366885 23,7.99366885 C22.4666667,8.06012447 22,7.59493508 22,6.99683442" id="Path" fill="#000000"></path>
            <path d="M23,6.99683442 C23,6.4651894 23.4666667,6 24,6 C24.6,6 25,6.4651894 25,6.99683442 C25,7.52847945 24.5333333,7.99366885 24,7.99366885 C23.4666667,8.06012447 23,7.59493508 23,6.99683442" id="Path" fill="#000000"></path>
            <path d="M25,6.99683442 C25,6.4651894 25.4666667,6 26,6 C26.6,6 27,6.4651894 27,6.99683442 C27,7.52847945 26.5333333,7.99366885 26,7.99366885 C25.4666667,8.06012447 25,7.59493508 25,6.99683442" id="Path" fill="#000000"></path>
            <path d="M27,8 C27,7.46666667 27.4666667,7 28,7 C28.6,7 29,7.46666667 29,8 C29,8.6 28.5333333,9 28,9 C27.4666667,9 27,8.53333333 27,8" id="Path" fill="#000000"></path>
            <path d="M40,8.99683442 C40,8.4651894 39.5333333,8 39,8 C38.4666667,8 38,8.4651894 38,8.99683442 C38,9.59493508 38.4666667,9.99366885 39,9.99366885 C39.5333333,10.0601245 40,9.59493508 40,8.99683442" id="Path" fill="#000000"></path>
            <path d="M49,14 C49,13.4666667 48.5333333,13 48,13 C47.4,13 47,13.4666667 47,14 C47,14.6 47.4666667,15 48,15 C48.5333333,15 49,14.5333333 49,14" id="Path" fill="#000000"></path>
            <path d="M50,11.9968344 C50,11.3987338 49.5333333,11 49,11 C48.4666667,11 48,11.4651894 48,11.9968344 C48,12.5284794 48.4666667,12.9936688 49,12.9936688 C49.5333333,13.0601245 50,12.5949351 50,11.9968344" id="Path" fill="#000000"></path>
            <path d="M50,10 C50,9.46666667 49.5333333,9 49,9 C48.4,9 48,9.46666667 48,10 C48,10.5333333 48.4666667,11 49,11 C49.6,11 50,10.5333333 50,10" id="Path" fill="#000000"></path>
            <path d="M49,7.99683442 C49,7.4651894 48.5333333,7 48,7 C47.4666667,7 47,7.4651894 47,7.99683442 C47,8.52847945 47.4666667,8.99366885 48,8.99366885 C48.5333333,9.06012447 49,8.59493508 49,7.99683442" id="Path" fill="#000000"></path>
            <path d="M47,6.99683442 C47,6.4651894 46.5333333,6 46,6 C45.4,6 45,6.4651894 45,6.99683442 C45,7.59493508 45.4666667,7.99366885 46,7.99366885 C46.5333333,8.06012447 47,7.59493508 47,6.99683442" id="Path" fill="#000000"></path>
            <path d="M45,6.99683442 C45,6.4651894 44.5333333,6 44,6 C43.4,6 43,6.4651894 43,6.99683442 C43,7.52847945 43.4666667,7.99366885 44,7.99366885 C44.5333333,8.06012447 45,7.59493508 45,6.99683442" id="Path" fill="#000000"></path>
            <path d="M44,6.99683442 C44,6.4651894 43.5333333,6 43,6 C42.4,6 42,6.4651894 42,6.99683442 C42,7.52847945 42.4666667,7.99366885 43,7.99366885 C43.6,8.06012447 44,7.59493508 44,6.99683442" id="Path" fill="#000000"></path>
            <path d="M42,8 C42,7.46666667 41.5333333,7 41,7 C40.4666667,7 40,7.46666667 40,8 C40,8.6 40.4666667,9 41,9 C41.6,9 42,8.53333333 42,8" id="Path" fill="#000000"></path>
            <path d="M41,19 C41,18.4705882 40.5294118,18 40,18 C39.4705882,18 39,18.4705882 39,19 C39,19.5294118 39.4705882,20 40,20 C40.5294118,20 41,19.5294118 41,19" id="Path" fill="#000000"></path>
            <path d="M35,24 L35,33 L43,33 L43,24 L35,24 Z M42.7674419,32.7680412 L35.2325581,32.7680412 L35.2325581,24.2783505 L38.1627907,24.2783505 L39.2790698,24.2783505 L42.7209302,24.2783505 L42.7674419,32.7680412 L42.7674419,32.7680412 Z" id="Shape" fill="#000000"></path>
            <path d="M36.472973,25 L36.472973,25 L36,25 L36,32.5294118 L36,33 L36.472973,33 L42.527027,33 L43,33 L43,32.5294118 L43,25.4705882 L43,25 L42.527027,25 L39.9256757,25 L38.5540541,25 L36.472973,25 Z M42.527027,25.2352941 L42.527027,25.4705882 L42.7635135,25.4705882 L42.7635135,32.5294118 L42.527027,32.5294118 L42.527027,32.7647059 L36.472973,32.7647059 L36.472973,32.5294118 L36.2364865,32.5294118 L36.2364865,25.4705882 L36.472973,25.4705882 L36.472973,25.2352941 L42.527027,25.2352941 Z" id="Shape" fill="#000000"></path>
            <path d="M41.9545455,27.3478261 L41.5909091,27.6956522 L41.5909091,27.6956522 C41.5909091,27.6956522 41.5454545,27.6956522 41.5454545,27.7391304 L41.5454545,27.7391304 L40.8636364,28.3478261 C40.6363636,28.5217391 40.5909091,28.826087 40.7727273,29.0434783 L41.1818182,29.5652174 C41.2272727,29.6086957 41.2272727,29.6521739 41.2272727,29.7391304 C41.2272727,29.7826087 41.1818182,29.8695652 41.1363636,29.8695652 C41.0909091,29.9130435 41.0454545,29.9130435 40.9545455,29.9130435 C40.9090909,29.9130435 40.8181818,29.8695652 40.8181818,29.826087 C40.8181818,29.826087 40.4090909,29.3043478 40.2272727,29.0434783 L40.2272727,28.3043478 L41.1818182,27.4347826 L41.1818182,26.6956522 L40.8636364,26.3913043 L41.2727273,26 L39.5909091,26 L39.1818182,26.3913043 L39.1818182,26.826087 C39.2272727,26.7826087 39.3181818,26.7826087 39.3636364,26.7826087 C39.5454545,26.7826087 39.7272727,26.9565217 39.7272727,27.1304348 C39.7272727,27.3043478 39.5454545,27.4782609 39.3636364,27.4782609 C39.3181818,27.4782609 39.2272727,27.4782609 39.1818182,27.4347826 L39.1818182,27.9565217 L38.5909091,27.9565217 L37.9090909,27.0434783 C38,26.9565217 38.0454545,26.826087 38.0454545,26.6956522 C38.0454545,26.4347826 37.8181818,26.2608696 37.5909091,26.2608696 C37.5,26.2608696 37.4090909,26.3043478 37.3181818,26.3478261 L37.3181818,26.6086957 L37.3181818,27.0434783 L37.3181818,27.0869565 C37.3181818,27.0869565 37.3181818,27.0869565 37.3636364,27.0869565 L38,27.9565217 L38.3181818,28.3913043 L38.9090909,28.3913043 L39.0909091,28.3913043 L38.6818182,28.7826087 L37.8636364,28.7826087 C37.8181818,28.6086957 37.6363636,28.5217391 37.4545455,28.5217391 C37.2727273,28.5217391 37.0909091,28.6521739 37.0454545,28.7826087 C37.0454545,28.826087 37,28.8695652 37,28.9565217 C37,29.0434783 37.0454545,29.173913 37.0909091,29.2173913 L37.8181818,29.2173913 L38.9545455,29.2173913 L39.2727273,29.6521739 L38.5454545,29.6521739 L38,29.6521739 L38,29.6521739 L38.5,30.3043478 L38.7727273,30.6521739 L38.1363636,30.6521739 C38.0909091,30.4782609 37.9090909,30.3478261 37.6818182,30.3478261 C37.5,30.3478261 37.3181818,30.4782609 37.2272727,30.6521739 C37.2272727,30.6956522 37.2272727,30.7391304 37.2272727,30.7826087 C37.2272727,30.9130435 37.2727273,31 37.3636364,31.0869565 L38.0454545,31.0869565 L39.1363636,31.0869565 L39.6818182,31.0869565 L39.3636364,30.6521739 L39.0909091,30.3043478 L39.8181818,30.3043478 L40.0909091,30.6521739 L40.4090909,31.0869565 L41.3636364,31.0869565 L41.5,31.0869565 L41.5,31.5652174 L41.3636364,31.5652174 C41.3181818,31.3913043 41.1363636,31.2608696 40.9090909,31.2608696 C40.6818182,31.2608696 40.5454545,31.3913043 40.4545455,31.5652174 C40.4545455,31.6086957 40.4545455,31.6521739 40.4545455,31.6956522 C40.4545455,31.826087 40.5,31.9130435 40.5909091,32 L41.9545455,32 L41.9545455,31.0434783 L41.9545455,30.6086957 L41.5,30.6086957 L41.0454545,30.6086957 L40.5909091,30.0434783 C40.6818182,30.1304348 40.7727273,30.2173913 40.9090909,30.2173913 C41.0454545,30.2173913 41.1818182,30.2173913 41.3181818,30.1304348 C41.4545455,30.0434783 41.5,29.9130435 41.5454545,29.7826087 C41.5454545,29.6521739 41.5454545,29.5217391 41.4545455,29.3913043 L41.0454545,28.8695652 C40.9545455,28.7826087 41,28.6086957 41.0909091,28.5652174 C41.0909091,28.5652174 41.1818182,28.4782609 41.2727273,28.3913043 C41.4545455,28.5217391 41.6818182,28.5217391 41.8636364,28.3913043 C41.9545455,28.3043478 42,28.2173913 42,28.0869565 L42,28.0869565 L42,28.0869565 L41.9545455,27.3478261 Z" id="Path" fill="#000000"></path>
            <polygon id="Path" fill="#000000" points="33 19 34 18 35 19 34 20"></polygon>
            <path d="M28,19 C28,18.4705882 28.4705882,18 29,18 C29.5294118,18 30,18.4705882 30,19 C30,19.5294118 29.5294118,20 29,20 C28.4705882,20 28,19.5294118 28,19" id="Path" fill="#000000"></path>
            <path d="M42.5807348,39.3125 L42.5807348,39.3125 L42.5807348,39.3125 C42.5807348,39.21875 42.5807348,39.171875 42.5807348,39.078125 C42.5807348,38.75 42.3496148,38.515625 42.0260469,38.515625 L40.0384152,38.515625 C40.0384152,38.28125 39.8072952,38.046875 39.5761753,38.046875 C39.4375033,38.046875 39.3450553,38.09375 39.2526073,38.1875 L38.6516954,38.796875 L39.2526073,38.796875 L39.2526073,38.796875 L39.9459672,38.796875 L42.0260469,38.796875 C42.1647188,38.796875 42.2571668,38.890625 42.2571668,39.03125 C42.2571668,39.171875 42.1647188,39.265625 42.0260469,39.265625 L42.0260469,39.265625 L40.6855511,39.265625 L40.6855511,39.265625 L38.0970075,39.265625 L38.0970075,38.703125 L38.7903674,38 L36.0631518,38 L36.7565117,38.703125 L36.7565117,39.734375 L35.6471359,38.84375 C35.7395839,38.75 35.7858079,38.609375 35.7858079,38.46875 C35.7858079,38.1875 35.5546879,38 35.3235679,38 C35.23112,38 35.092448,38.046875 35,38.09375 L35,38.796875 L35,38.796875 L35,38.9375 L36.7102877,40.34375 L35.9244798,40.578125 C35.8782559,40.390625 35.6933599,40.25 35.4622399,40.25 C35.184896,40.25 35,40.484375 35,40.71875 C35,40.8125 35.046224,40.953125 35.092448,41 L35.6471359,41 L36.0631518,41 L40.3157591,39.640625 L40.3157591,40.296875 L39.7610712,40.53125 C39.7148472,40.296875 39.5299513,40.15625 39.2988313,40.15625 C39.0214873,40.15625 38.8365914,40.390625 38.8365914,40.625 C38.8365914,40.71875 38.8828154,40.859375 38.9290394,40.90625 L39.4375033,40.90625 L39.9921912,40.90625 L40.6393271,40.578125 L41.055343,40.390625 L40.870447,39.96875 L40.870447,39.875 L42.4420628,39.875 C42.4420628,39.921875 42.3958388,40.015625 42.3958388,40.0625 C42.3496148,40.15625 42.3033908,40.296875 42.2571668,40.390625 C42.1647188,40.296875 42.0260469,40.25 41.8873749,40.25 C41.6100309,40.25 41.425135,40.484375 41.425135,40.71875 C41.425135,40.8125 41.4713589,40.953125 41.5175829,41 L42.2571668,41 L42.4882868,41 C42.6269588,40.71875 42.7194067,40.390625 42.7656307,40.203125 C42.9043027,39.78125 42.9967507,39.40625 42.9967507,39.265625 C43.0429747,39.3125 42.5807348,39.3125 42.5807348,39.3125 M37.4498716,39.359375 L36.9876317,38.890625 L37.9121115,38.890625 L37.4498716,39.359375 Z" id="Shape" fill="#000000"></path>
            <path d="M42.4606742,36.2923077 C42.505618,36.2 42.505618,36.1538462 42.505618,36.0615385 C42.505618,35.7384615 42.2808989,35.5076923 41.9662921,35.5076923 L39.9438202,35.5076923 C39.9438202,35.2769231 39.7191011,35.0461538 39.494382,35.0461538 C39.3595506,35.0461538 39.2696629,35.0923077 39.1797753,35.1846154 L38.5955056,35.7846154 L39.1797753,35.7846154 L39.1797753,35.7846154 L39.8539326,35.7846154 L42.011236,35.7846154 C42.1460674,35.7846154 42.2359551,35.8769231 42.2359551,36.0153846 C42.2359551,36.1538462 42.1460674,36.2461538 42.011236,36.2461538 L40.6179775,36.2461538 L38.0561798,36.2461538 L38.0561798,35.6923077 L38.7303371,35 L36.0786517,35 L36.752809,35.6923077 L36.752809,36.7076923 L35.6741573,35.8307692 C35.7640449,35.7384615 35.8089888,35.6 35.8089888,35.5076923 C35.8089888,35.2307692 35.5842697,35.0461538 35.3595506,35.0461538 C35.2696629,35.0461538 35.1348315,35.0923077 35.0449438,35.1384615 L35.0449438,35.8307692 L35.0449438,35.9692308 L36.6629213,37.3076923 L35.8988764,37.5384615 C35.8539326,37.3538462 35.6741573,37.2153846 35.4494382,37.2153846 C35.1797753,37.2153846 35,37.4461538 35,37.6769231 C35,37.7692308 35.0449438,37.9076923 35.0898876,38 L35.8089888,38 L36.0337079,38 L40.1685393,36.6615385 L40.1685393,37.3538462 L39.6292135,37.5384615 C39.5842697,37.3538462 39.4044944,37.2153846 39.1797753,37.2153846 C38.9101124,37.2153846 38.7303371,37.4461538 38.7303371,37.6769231 C38.7303371,37.7692308 38.7752809,37.9076923 38.8202247,38 L39.5393258,38 L39.8539326,38 L40.8876404,37.6769231 L41.3820225,37.4923077 L40.9775281,37.1230769 L40.7078652,36.8461538 L42.5505618,36.8461538 L42.5505618,37.3538462 C42.4606742,37.2615385 42.3258427,37.1692308 42.1910112,37.1692308 C41.9213483,37.1692308 41.741573,37.4 41.741573,37.6307692 C41.741573,37.7230769 41.7865169,37.8615385 41.8314607,37.9538462 L42.5505618,37.9538462 L43,37.9538462 L43,36.8 L43,36.5692308 L43,36.2461538 L42.4606742,36.2923077 L42.4606742,36.2923077 Z M37.4269663,36.3384615 L36.9775281,35.8769231 L37.8764045,35.8769231 L37.4269663,36.3384615 Z" id="Shape" fill="#000000"></path>
            <path d="M40.4711837,41.5154639 L39.6779593,41.5154639 C39.6779593,41.257732 39.4576192,41 39.237279,41 C39.105075,41 39.0169389,41.0515464 38.9288029,41.1546392 L38.3559186,41.8247423 L38.9288029,41.8247423 L38.9288029,41.8247423 L39.6338913,41.8247423 L40.5152517,41.8247423 C40.6474558,41.8247423 40.7355919,41.9278351 40.7355919,42.0824742 C40.7355919,42.2371134 40.6474558,42.3402062 40.5152517,42.3402062 L39.237279,42.3402062 L37.9152383,42.3402062 L37.9152383,41.8247423 L38.5762587,41.0515464 L35.9762453,41.0515464 L36.6372656,41.8247423 L36.6372656,43.1134021 L35.5796331,41.9793814 C35.6677691,41.8762887 35.7559051,41.7216495 35.7559051,41.5670103 C35.7559051,41.257732 35.535565,41.0515464 35.3152249,41.0515464 C35.2270889,41.0515464 35.0948848,41.1030928 35.0067487,41.1546392 L35.0067487,41.7216495 L35.0067487,42.0309278 L36.6813337,43.8350515 L36.7694697,43.7319588 L35.7118371,45.2268041 C35.6237011,45.1237113 35.491497,45.1237113 35.403361,45.1237113 C35.1389528,45.1752577 34.9626807,45.4329897 35.0067487,45.6907216 C35.0067487,45.7938144 35.0508168,45.8969072 35.0948848,46 C35.2711569,46 35.491497,45.9484536 35.8440412,45.8969072 L37.0338778,44.2474227 C37.2101499,44.1958763 37.342354,44.0927835 37.5186261,44.0412371 L38.0033744,44.556701 C37.9152383,44.6082474 37.8271023,44.6597938 37.7389662,44.7113402 C37.6067622,44.6082474 37.4304901,44.556701 37.298286,44.6082474 C37.0779459,44.7113402 36.9457418,45.0206186 37.0338778,45.2783505 C37.0779459,45.3814433 37.1220139,45.4329897 37.1660819,45.4845361 C37.1660819,45.4845361 37.342354,45.4329897 37.5186261,45.3298969 C37.6948982,45.2268041 37.8711703,45.1752577 37.8711703,45.1752577 L37.8711703,45.1752577 C38.0915104,45.0721649 38.2677825,44.9690722 38.4440546,44.8659794 L38.4440546,44.2474227 L38.4440546,43.4742268 C38.7525308,43.2680412 39.0169389,43.0618557 39.237279,42.8041237 L39.6779593,43.2680412 C39.5898232,43.371134 39.5016872,43.4226804 39.3694831,43.5257732 C39.237279,43.4226804 39.0610069,43.4226804 38.9288029,43.5257732 C38.8406668,43.5773196 38.7525308,43.7319588 38.7084628,43.8350515 C38.7084628,43.8865979 38.7084628,43.9896907 38.7084628,44.0412371 C38.7084628,44.0927835 38.7525308,44.1958763 38.7525308,44.2474227 C38.7965988,44.3505155 38.8847348,44.4020619 38.9728709,44.4536082 C39.193211,44.2989691 39.3694831,44.1443299 39.5898232,43.9896907 C39.7220273,43.8865979 39.8982994,43.7319588 40.0305035,43.5773196 C40.0745715,43.5257732 40.1186395,43.4742268 40.1627075,43.4226804 L40.1627075,42.9072165 L40.1627075,42.7525773 L40.4711837,42.7525773 C40.7796599,42.7525773 41,42.4948454 41,42.1340206 C41,41.8247423 40.7796599,41.5154639 40.4711837,41.5154639 M37.2101499,42.4948454 L36.7694697,41.9793814 L37.6508302,41.9793814 L37.2101499,42.4948454 Z" id="Shape" fill="#000000"></path>
            <path d="M32.5,32.2923077 C32.5454545,32.2 32.5454545,32.1538462 32.5454545,32.0615385 C32.5454545,31.7384615 32.3181818,31.5076923 32,31.5076923 L29.9545455,31.5076923 C29.9545455,31.2769231 29.7272727,31.0461538 29.5,31.0461538 C29.3636364,31.0461538 29.2727273,31.0923077 29.1818182,31.1846154 L28.5909091,31.7846154 L29.1363636,31.7846154 L29.1363636,31.7846154 C29.1363636,31.7846154 29.8181818,31.7846154 29.8636364,31.7846154 L32.0454545,31.7846154 C32.1818182,31.7846154 32.2727273,31.8769231 32.2727273,32.0153846 C32.2727273,32.1538462 32.1818182,32.2461538 32.0454545,32.2461538 L30.6363636,32.2461538 L30.6363636,32.2461538 L28.0909091,32.2461538 L28.0909091,31.6923077 L28.7727273,31 L26.0909091,31 L26.7727273,31.6923077 L26.7727273,32.7076923 L25.6818182,31.8307692 C25.7727273,31.7384615 25.8181818,31.6 25.8181818,31.5076923 C25.8181818,31.2307692 25.5909091,31.0461538 25.3636364,31.0461538 C25.2272727,31.0461538 25.1363636,31.0923077 25.0454545,31.1384615 L25.0454545,31.8307692 L25.0454545,31.9692308 L26.6818182,33.3076923 L25.9090909,33.5384615 C25.8636364,33.3538462 25.6818182,33.2153846 25.4545455,33.2153846 C25.1818182,33.2153846 25,33.4461538 25,33.6769231 C25,33.8153846 25.0454545,33.9076923 25.0909091,34 C25.0909091,34 25.7272727,34 25.8181818,34 L26.0454545,34 L30.2272727,32.6615385 L30.2272727,33.3538462 L29.6818182,33.5384615 C29.6363636,33.3538462 29.4545455,33.2153846 29.2272727,33.2153846 C28.9545455,33.2153846 28.7727273,33.4461538 28.7727273,33.6769231 C28.7727273,33.8153846 28.8181818,33.9076923 28.8636364,34 C28.8636364,34 29.5,34 29.5909091,34 L29.8181818,34 L30.8636364,33.6769231 L31.3636364,33.5384615 L30.9545455,33.1692308 L30.6818182,32.8923077 L32.5454545,32.8923077 L32.5454545,33.4 C32.4545455,33.3076923 32.3181818,33.2153846 32.1818182,33.2153846 C31.9090909,33.2153846 31.7272727,33.4461538 31.7272727,33.6769231 C31.7272727,33.8153846 31.7727273,33.9076923 31.8181818,34 L32.5454545,34 L33,34 L33,32.8923077 L33,32.2923077 L32.5,32.2923077 Z M27.3636364,32.3384615 L26.9090909,31.8769231 L27.8181818,31.8769231 L27.3636364,32.3384615 Z" id="Shape" fill="#000000"></path>
            <path d="M32.5028249,28.2923077 C32.5480226,28.2 32.5480226,28.1538462 32.5480226,28.0615385 C32.5480226,27.7384615 32.3220339,27.5076923 32.0056497,27.5076923 L29.9717514,27.5076923 C29.9717514,27.2769231 29.7457627,27.0461538 29.519774,27.0461538 C29.3841808,27.0461538 29.2937853,27.0923077 29.2033898,27.1846154 L28.6158192,27.7846154 L29.1581921,27.7846154 L29.1581921,27.7846154 L29.8361582,27.7846154 L32.0056497,27.7846154 C32.1412429,27.7846154 32.2316384,27.8769231 32.2316384,28.0153846 C32.2316384,28.1538462 32.1412429,28.2461538 32.0056497,28.2461538 L30.6045198,28.2461538 L28.0734463,28.2461538 L28.0734463,27.6923077 L28.7514124,27 L26.0847458,27 L26.7627119,27.6923077 L26.7627119,28.7076923 L25.6779661,27.8307692 C25.7683616,27.7384615 25.8135593,27.6 25.8135593,27.5076923 C25.8135593,27.2307692 25.5875706,27.0461538 25.3615819,27.0461538 C25.2259887,27.0461538 25.1355932,27.0923077 25.0451977,27.1384615 L25.0451977,27.8307692 L25.0451977,27.9692308 L26.6723164,29.3076923 L25.9039548,29.5384615 C25.8587571,29.3538462 25.6779661,29.2153846 25.4519774,29.2153846 C25.180791,29.2153846 25,29.4461538 25,29.6769231 C25,29.7692308 25.0451977,29.9076923 25.0903955,30 L25.8135593,30 L26.039548,30 L30.1977401,28.6615385 L30.1977401,29.3538462 L29.6553672,29.5384615 C29.6101695,29.3538462 29.4293785,29.2153846 29.2033898,29.2153846 C28.9322034,29.2153846 28.7514124,29.4461538 28.7514124,29.6769231 C28.7514124,29.7692308 28.7966102,29.9076923 28.8418079,30 L29.6101695,30 L29.8361582,30 L30.8757062,29.6769231 L31.3728814,29.4923077 L30.9661017,29.1230769 L30.6949153,28.8461538 L32.5480226,28.8461538 L32.5480226,29.3538462 C32.4576271,29.2615385 32.3220339,29.1692308 32.1864407,29.1692308 C31.9152542,29.1692308 31.7344633,29.4 31.7344633,29.6307692 C31.7344633,29.7230769 31.779661,29.8615385 31.8248588,29.9538462 L32.5480226,29.9538462 L33,29.9538462 L33,28.8 L33,28.2 L32.5028249,28.2 L32.5028249,28.2923077 L32.5028249,28.2923077 Z M27.3954802,28.3384615 L26.9435028,27.8769231 L27.8474576,27.8769231 L27.3954802,28.3384615 Z" id="Shape" fill="#000000"></path>
            <path d="M32.5454545,24.2923077 C32.5909091,24.2 32.5909091,24.1538462 32.5909091,24.0615385 C32.5909091,23.7384615 32.3636364,23.5076923 32.0454545,23.5076923 L30,23.5076923 C30,23.2769231 29.7727273,23.0461538 29.5454545,23.0461538 C29.4090909,23.0461538 29.3181818,23.0923077 29.2272727,23.1846154 L28.6363636,23.7846154 L29.1818182,23.7846154 L29.1818182,23.7846154 C29.1818182,23.7846154 29.7727273,23.7846154 29.8636364,23.7846154 L32.0454545,23.7846154 C32.1818182,23.7846154 32.2727273,23.8769231 32.2727273,24.0153846 C32.2727273,24.1538462 32.1818182,24.2461538 32.0454545,24.2461538 L32.0454545,24.2461538 L30.6363636,24.2461538 L30.6363636,24.2461538 L28.0909091,24.2461538 L28.0909091,23.6923077 L28.7727273,23 L26.0909091,23 L26.7727273,23.6923077 L26.7727273,24.7076923 L25.6818182,23.8307692 C25.7727273,23.7384615 25.8181818,23.6 25.8181818,23.5076923 C25.8181818,23.2307692 25.5909091,23.0461538 25.3636364,23.0461538 C25.2272727,23.0461538 25.1363636,23.0923077 25.0454545,23.1384615 L25.0454545,23.8307692 L25.0454545,23.9692308 L26.6818182,25.3076923 L25.9090909,25.5384615 C25.8636364,25.3538462 25.6818182,25.2153846 25.4545455,25.2153846 C25.1818182,25.2153846 25,25.4461538 25,25.6769231 C25,25.8153846 25.0454545,25.9076923 25.0909091,26 C25.0909091,26 25.7727273,26 25.8181818,26 L26.0454545,26 L30.2272727,24.6615385 L30.2272727,25.3538462 L29.6818182,25.5384615 C29.6363636,25.3538462 29.4545455,25.2153846 29.2272727,25.2153846 C28.9545455,25.2153846 28.7727273,25.4461538 28.7727273,25.6769231 C28.7727273,25.8153846 28.8181818,25.9076923 28.8636364,26 C28.8636364,26 29.5454545,26 29.5909091,26 L29.8181818,26 L30.8636364,25.6769231 L31.3636364,25.5384615 L30.9545455,25.1692308 L30.6818182,24.8923077 L32.5454545,24.8923077 L32.5454545,25.4 C32.4545455,25.3076923 32.3181818,25.2153846 32.1818182,25.2153846 C31.9090909,25.2153846 31.7272727,25.4461538 31.7272727,25.6769231 C31.7272727,25.8153846 31.7727273,25.9076923 31.8181818,26 L32.5454545,26 L33,26 L33,24.8461538 L33,24.2461538 L32.5454545,24.2923077 L32.5454545,24.2923077 Z M27.4090909,24.3846154 L26.9545455,23.9230769 L27.8636364,23.9230769 L27.4090909,24.3846154 Z" id="Shape" fill="#000000"></path>
            <path d="M47.6452416,33.9920533 L47.6452416,33.9920533 C47.9337217,33.908183 48.057356,33.6146371 47.9749331,33.3630263 C47.9337217,33.2372209 47.8512988,33.1114155 47.7276645,33.0694804 C47.6040301,32.9856101 47.4803958,32.9856101 47.3567615,33.0275453 C47.2331271,33.0694804 47.1094928,33.1533507 47.0682814,33.2791561 C46.9858585,33.4049614 46.9858585,33.5307668 47.0270699,33.6565722 C47.1094928,33.908183 47.3979729,34.0339884 47.6452416,33.9920533" id="Path" fill="#000000"></path>
            <path d="M46,33.8095238 L46.097561,34.3333333 L48.0487805,34.047619 C48.097561,34.047619 50,35 50,35 L49.902439,34.3333333 C49.902439,34.3333333 48.6341463,33.7142857 48.5365854,33.6666667 C48.6341463,33.5714286 49.6585366,32.6666667 49.6585366,32.6666667 L49.5609756,32 L49.5121951,32.047619 C49.5121951,32.047619 48,33.4285714 47.9512195,33.4761905 C47.9512195,33.5238095 46,33.8095238 46,33.8095238" id="Path" fill="#000000"></path>
            <path d="M48,36.5330087 C48,36.6472249 48.04,36.761441 48.16,36.8756572 C48.24,36.9518013 48.36,37.0279454 48.52,36.9898734 C48.64,36.9898734 48.76,36.9518013 48.88,36.8375851 C48.96,36.761441 49,36.6472249 49,36.4949367 C49,36.3807205 48.96,36.2665044 48.84,36.1522882 C48.76,36.0761441 48.64,36 48.48,36 C48.2,36.0380721 48,36.2665044 48,36.5330087" id="Path" fill="#000000"></path>
            <path d="M46.05,37 L46,37.6305396 C46,37.6305396 47.55,37.8598267 47.65,37.9171485 C47.65,37.9744702 47.6,38.4330445 47.6,38.4330445 C47.6,38.547688 47.6,38.6050098 47.6,38.7196534 C47.6,39.0062623 47.65,39.2928711 47.8,39.5221583 C47.95,39.7514454 48.2,39.9234107 48.55,39.9807325 C49.25,40.0953761 49.75,39.6941236 49.85,38.8916187 L50,37.6305396 L46.05,37 L46.05,37 Z M49.25,38.1464356 C49.25,38.2037574 49.2,38.7769751 49.2,38.7769751 C49.15,39.3501929 48.75,39.3501929 48.6,39.2928711 C48.3,39.2355494 48.1,39.0062623 48.1,38.7196534 C48.1,38.6623316 48.1,38.6623316 48.1,38.6050098 C48.1,38.6050098 48.15,38.1464356 48.15,38.031792 C48.25,37.9744702 49.2,38.0891138 49.25,38.1464356" id="Shape" fill="#000000"></path>
            <path d="M45.5977011,40 L45,41.8095238 L45.5057471,42 C45.5057471,42 45.9195402,40.7142857 45.9195402,40.6666667 C45.9655172,40.7142857 46.7931034,40.952381 46.8850575,41 C46.8390805,41.0952381 46.4712644,42.2380952 46.4712644,42.2380952 L46.9770115,42.4285714 C46.9770115,42.4285714 47.3448276,41.2380952 47.3908046,41.1904762 C47.4367816,41.2380952 48.2643678,41.4761905 48.3103448,41.5238095 C48.2643678,41.6190476 47.8965517,42.8095238 47.8965517,42.8095238 L48.4022989,43 L49,41.1904762 L45.5977011,40 L45.5977011,40 Z" id="Path" fill="#000000"></path>
            <path d="M44.6336634,41 L44.3861386,41.4210526 C44.3861386,41.4210526 46.5643564,42.8947368 46.7623762,43.0526316 C46.5148515,43.0526316 43.2475248,43.3684211 43.2475248,43.3684211 L43,43.7894737 L46.2673267,46 L46.5643564,45.5263158 C46.5643564,45.5263158 44.3861386,44.0526316 44.1881188,43.8947368 C44.4356436,43.8947368 47.7524752,43.5263158 47.7524752,43.5263158 L48,43.1052632 L44.6336634,41 L44.6336634,41 Z" id="Path" fill="#000000"></path>
            <path d="M43.9130435,45.7066667 C43.4492754,45.76 43.0434783,45.8666667 42.7536232,45.6 C42.6376812,45.4933333 42.5217391,45.1733333 42.8115942,44.9066667 C43.1014493,44.64 43.5072464,44.5866667 43.9710145,44.64 L44.1449275,44.64 L43.4492754,44 L43.4492754,44 C42.9855072,44.0533333 42.6376812,44.16 42.3478261,44.48 C42.115942,44.6933333 42,44.96 42,45.2266667 C42,45.5466667 42.115942,45.8133333 42.4057971,46.08 C42.9855072,46.6133333 43.6231884,46.5066667 44.2028986,46.4 C44.6086957,46.2933333 44.9565217,46.24 45.2463768,46.4533333 C45.3043478,46.56 45.3623188,46.6133333 45.3623188,46.72 C45.3623188,46.88 45.3043478,46.9866667 45.1304348,47.1466667 C44.8985507,47.36 44.6086957,47.4666667 44.2028986,47.4133333 L44.0869565,47.4133333 L44.7246377,48 L44.7246377,48 C45.0724638,47.9466667 45.3623188,47.84 45.5942029,47.6266667 C45.884058,47.36 46,47.0933333 46,46.8266667 C46,46.56 45.884058,46.24 45.5942029,46.0266667 C45.0724638,45.4933333 44.4347826,45.6 43.9130435,45.7066667" id="Path" fill="#000000"></path>
            <path d="M41.7368421,45 L40,46.25 L40.3157895,46.8181818 C40.3157895,46.8181818 41.5263158,45.9090909 41.6315789,45.8522727 C41.6842105,45.9090909 42.2105263,46.8181818 42.2631579,46.875 C42.2105263,46.9318182 41.0526316,47.7840909 41.0526316,47.7840909 L41.3684211,48.3522727 C41.3684211,48.3522727 42.5263158,47.5 42.5789474,47.5 C42.6315789,47.5568182 43.1578947,48.4090909 43.2105263,48.5227273 C43.1578947,48.5795455 41.9473684,49.4318182 41.9473684,49.4318182 L42.2631579,50 L44,48.75 L41.7368421,45 L41.7368421,45 Z" id="Path" fill="#000000"></path>
            <path d="M28.4408602,48.755102 C28.3870968,48.7040816 26.827957,47.7857143 26.7741935,47.7346939 C26.827957,47.6836735 27.7419355,46.3061224 27.7419355,46.3061224 L27.2043011,46 L27.2043011,46.0510204 L25,49.3673469 L25.5376344,49.6734694 C25.5376344,49.6734694 26.4516129,48.2959184 26.5053763,48.244898 C26.5591398,48.2959184 28.1182796,49.2142857 28.172043,49.2653061 C28.1182796,49.3163265 27.2043011,50.6938776 27.2043011,50.6938776 L27.7419355,51 L30,47.6326531 L29.4623656,47.3265306 C29.4086022,47.3265306 28.4946237,48.6530612 28.4408602,48.755102" id="Path" fill="#000000"></path>
            <path d="M25.9921771,44.9837146 C26.0432593,44.4752219 25.8389306,44.0175785 25.5324375,43.6616337 C24.6640406,42.6954976 23.4891507,42.8988947 22.7229181,43.5599351 C22.2631785,43.9667292 22.0077677,44.4752219 22.0077677,44.9837146 C21.9566855,45.4922072 22.1610142,45.9498506 22.5185894,46.3566447 C23.2337398,47.170233 24.4597119,47.2210823 25.3281089,46.4583433 C25.6856841,46.0515491 25.9410949,45.5430565 25.9921771,44.9837146 M25.379191,44.9837146 C25.379191,45.3396594 25.1748623,45.7464535 24.8683693,46.0006999 C24.2553832,46.5600418 23.4380685,46.5600418 22.9272468,45.9498506 C22.6718359,45.6956043 22.5696716,45.3396594 22.6207537,45.0345638 C22.6207537,44.678619 22.8250824,44.3226741 23.1315755,44.0175785 C23.4380685,43.7633322 23.8467259,43.6107844 24.2043011,43.6107844 C24.5618763,43.6107844 24.8683693,43.7633322 25.072698,44.0175785 C25.2770267,44.3226741 25.379191,44.6277697 25.379191,44.9837146" id="Shape" fill="#000000"></path>
            <path d="M24.7959184,42.7173913 C24.7959184,42.7173913 22.3469388,43.9130435 22.1428571,44.0217391 C22.244898,43.8043478 23.8265306,40.4891304 23.8265306,40.4891304 L23.622449,40 L23.5714286,40 L20,41.7934783 L20.255102,42.3369565 C20.255102,42.3369565 22.7040816,41.1413043 22.9081633,41.0326087 C22.8061224,41.25 21.2244898,44.5652174 21.2244898,44.5652174 L21.4285714,45 L25,43.2065217 L24.7959184,42.7173913 Z" id="Path" fill="#000000"></path>
            <polygon id="Path" fill="#000000" points="23.8974359 39 23.8461538 39.0645161 20 40.2258065 20.1538462 41 24 39.7741935"></polygon>
            <path d="M21.7900919,38.0965238 C21.6678642,38.0158286 21.5456366,37.9754809 21.423409,38.0158286 C21.3011813,38.0158286 21.1789537,38.0965238 21.0974686,38.2175667 C21.0159835,38.3386095 20.975241,38.4596524 21.0159835,38.5806952 C21.0159835,38.7017381 21.0974686,38.822781 21.2196962,38.9034762 C21.3419239,38.9841714 21.4641515,39.0245191 21.5863791,38.9841714 C21.8715769,38.9438238 22.0345471,38.7017381 21.9938046,38.4193048 C21.953062,38.2579143 21.8715769,38.177219 21.7900919,38.0965238" id="Path" fill="#000000"></path>
            <path d="M21.1772152,36.0952381 C21.4303797,35.7619048 21.6329114,35.4761905 21.9873418,35.4761905 C22.0886076,35.4761905 22.1898734,35.5238095 22.2911392,35.6190476 C22.3924051,35.7142857 22.443038,35.8571429 22.443038,36 C22.443038,36.2857143 22.2405063,36.5714286 21.8860759,36.8095238 L21.7848101,36.9047619 L22.6455696,36.9047619 L22.6455696,36.9047619 C22.8987342,36.6190476 23,36.3333333 23,35.952381 C23,35.7142857 22.8987342,35.4761905 22.7468354,35.2857143 C22.5443038,35.0952381 22.2405063,35 21.9367089,35 C21.2278481,35 20.9240506,35.4285714 20.6202532,35.8571429 C20.4177215,36.1428571 20.2658228,36.4285714 19.9620253,36.4285714 C19.8607595,36.4285714 19.7594937,36.3809524 19.7088608,36.3333333 C19.6075949,36.2380952 19.556962,36.0952381 19.556962,35.952381 C19.556962,35.7142857 19.7088608,35.4285714 19.9620253,35.2380952 L20.0632911,35.1904762 L19.3037975,35.1904762 L19.3037975,35.1904762 C19.1012658,35.4285714 19,35.6666667 19,35.952381 C19,36.2857143 19.1012658,36.5238095 19.3037975,36.7142857 C19.5063291,36.9047619 19.7594937,37 20.0632911,37 C20.5696203,36.9047619 20.8734177,36.4761905 21.1772152,36.0952381" id="Path" fill="#000000"></path>
            <path d="M21.6006854,35.9257688 C22.150921,36.0837591 22.7011566,35.9784322 23.1513494,35.7151151 C23.5515207,35.451798 23.8516492,35.0304907 23.951692,34.5038565 C24.0517349,33.9772223 24.0017135,33.4505881 23.7516064,33.0292808 C23.5014993,32.55531 23.0012851,32.1866661 22.4510495,32.0813393 C21.3505783,31.7653587 20.3001285,32.3973198 20.0500214,33.5032516 C20,33.6612418 20,33.8192321 20,33.9772223 C20,34.3458663 20.1000428,34.6618468 20.2501071,34.9251639 C20.600257,35.451798 21.0504498,35.820442 21.6006854,35.9257688 M20.7002999,33.6612418 C20.8003427,33.2925979 21.0004284,33.0292808 21.2505355,32.8186271 C21.550664,32.6079734 21.9508353,32.55531 22.3510067,32.6606369 C22.751178,32.7659637 23.1013279,33.0292808 23.2513922,33.3452613 C23.4014564,33.6612418 23.4514779,33.9772223 23.4014564,34.3458663 C23.2013708,35.0831541 22.5010709,35.5044615 21.7007282,35.2938078 C20.9504069,35.1358175 20.5002142,34.4511931 20.7002999,33.6612418" id="Shape" fill="#000000"></path>
            <path d="M52,37.3966034 C52,32.8891109 50.2503477,28.6633367 47.0347705,25.4705295 C46.6564673,25.0949051 46.2781641,24.7662338 45.852573,24.3906094 L45.852573,23.7332667 C46.5146036,23.6863137 47.0820584,23.1228771 47.0820584,22.4655345 C47.0820584,21.7612388 46.5146036,21.1978022 45.8052851,21.1978022 C45.7579972,21.1978022 45.7579972,21.1978022 45.7107093,21.1978022 L46.9401947,20.6343656 L46.4673157,19.6013986 L48.3115438,15.3286713 L47.5076495,15 L45.6161335,19.3666334 L44.6230876,19.8361638 L45.2851182,21.2447552 L39.8470097,21.2447552 L30.2002782,21.2447552 L24.7621697,21.2447552 L25.4242003,19.8361638 L24.3838665,19.3666334 L22.4923505,15 L21.6884562,15.3286713 L23.5326843,19.6013986 L23.0598053,20.6343656 L24.2892907,21.1978022 C24.2892907,21.1978022 24.2892907,21.1978022 24.2420028,21.1978022 C23.5326843,21.1978022 22.9652295,21.7612388 22.9652295,22.4655345 C22.9652295,23.1228771 23.4853964,23.6863137 24.147427,23.7332667 L24.147427,24.3906094 C23.7691238,24.7192807 23.3435327,25.0949051 22.9652295,25.4705295 C19.7496523,28.6633367 18,32.8891109 18,37.3966034 C18,40.8711289 19.0403338,44.2047952 21.0737135,47.0689311 C23.0598053,49.8391608 25.7552156,51.952048 28.9707928,53.1258741 C28.9707928,53.1258741 29.1599444,53.1728272 29.4436718,53.3136863 C29.4909597,53.7832168 29.7746871,54.2057942 30.2002782,54.3466533 C30.6731572,54.5344655 31.1933241,54.3466533 31.4770515,54.017982 L31.5243394,54.017982 L31.5243394,58.8071928 C31.5243394,60.5914086 33.0375522,62 34.9290682,62 C36.8205841,62 38.3337969,60.5444555 38.3337969,58.8071928 L38.3337969,55.6143856 L46.6564673,51.6703297 C46.9401947,51.5764236 47.1766342,51.4355644 47.4130737,51.2477522 C48.0751043,50.6373626 48.1696801,49.6983017 47.744089,48.4775225 C48.5006954,47.6323676 49.162726,46.7402597 49.6828929,45.7542458 C51.1961057,43.2187812 52,40.3546454 52,37.3966034 M43.1571627,21.996004 L45.6161335,22.5124875 L43.1571627,23.028971 L43.1571627,21.996004 Z M35.2600834,47.6323676 L35.2600834,34.955045 L45.0013908,34.955045 L45.0013908,37.3496503 C45.0013908,39.6973027 44.5757997,41.2937063 43.961057,42.4675325 C43.4408901,43.3126873 42.8261474,44.1108891 42.069541,44.8151848 C42.0222531,44.8621379 41.9749652,44.9090909 41.9276773,44.956044 C40.1307371,46.6463536 37.7190542,47.5854146 35.2600834,47.6323676 M38.1919332,48.0549451 C38.0027816,48.4775225 37.8609179,48.9470529 37.7663421,49.4635365 C36.8205841,49.1348651 35.922114,48.8061938 35.0236439,48.4775225 L35.0236439,48.4775225 C36.1112656,48.5244755 37.1988873,48.3366633 38.1919332,48.0549451 M35.2600834,34.5324675 L35.2600834,23.7802198 L43.488178,23.7802198 L45.0013908,23.7802198 L45.0013908,32.2317682 L45.0013908,34.5324675 L35.2600834,34.5324675 Z M38.6648122,21.996004 L41.123783,22.5124875 L38.6648122,23.028971 L38.6648122,21.996004 Z M34.1251739,21.996004 L36.5841446,22.5124875 L34.1251739,23.028971 L34.1251739,21.996004 Z M29.5382476,21.996004 L31.9972184,22.5124875 L29.5382476,23.028971 L29.5382476,21.996004 Z M25.093185,21.996004 L27.5521558,22.5124875 L25.093185,23.028971 L25.093185,21.996004 Z M25.093185,32.2317682 L25.093185,23.7802198 L26.6063978,23.7802198 L34.8344924,23.7802198 L34.8344924,34.5324675 L25.093185,34.5324675 L25.093185,32.2317682 Z M25.093185,34.955045 L34.8344924,34.955045 L34.8344924,47.6323676 C32.8484006,47.5854146 30.9095967,46.975025 29.2545202,45.8481518 L29.2545202,45.8481518 C29.2072323,45.8011988 29.1126565,45.7542458 29.0653686,45.7072927 L29.0180807,45.6603397 C28.9707928,45.6133866 28.9235049,45.6133866 28.876217,45.5664336 C28.8289291,45.5194805 28.7816412,45.4725275 28.7343533,45.4725275 C28.7343533,45.4725275 28.7343533,45.4725275 28.6870654,45.4255744 C27.6467316,44.6273726 26.7482615,43.5944056 26.0862309,42.4205794 C25.4714882,41.2467532 25.093185,39.6503497 25.093185,37.3496503 L25.093185,34.955045 Z M29.7273992,52.5154845 C29.5855355,52.4685315 29.4436718,52.4215784 29.349096,52.3746254 C26.3226704,51.2477522 23.7218359,49.2287712 21.8776078,46.5994006 C19.9860918,43.9230769 18.945758,40.7302697 18.945758,37.3966034 C18.945758,33.1238761 20.6008345,29.1328671 23.674548,26.0809191 C23.8636996,25.8931069 24.0528512,25.7052947 24.2420028,25.5644356 L24.2420028,29.9310689 C23.5799722,29.4615385 22.8233658,28.992008 22.7760779,28.9450549 C22.8233658,28.8981019 23.3908206,28.005994 23.3908206,28.005994 L22.9179416,27.7242757 L22.9179416,27.7712288 L21.4047288,30.024975 L21.8776078,30.3066933 C21.8776078,30.3066933 22.4450626,29.4615385 22.4923505,29.3676324 C22.5396384,29.4145854 23.5326843,30.024975 24.2420028,30.5414585 L24.2420028,32.0909091 L21.1210014,30.6823177 L21.1210014,30.7292707 L20.8845619,31.1988012 L24.2420028,32.7482517 L24.2420028,34.6263736 C24.0055633,35.5184815 23.8636996,36.4575425 23.8636996,37.4435564 C23.8636996,39.4625375 24.4311544,41.3406593 25.3769124,42.984016 C25.9916551,44.1578422 26.7955494,44.956044 27.5521558,45.6603397 C27.8831711,45.9420579 28.2141864,46.2237762 28.5924896,46.5054945 C28.6397775,46.5054945 28.6397775,46.5524476 28.6870654,46.5524476 C28.7343533,46.5994006 28.7816412,46.5994006 28.8289291,46.6463536 C28.876217,46.6933067 28.9235049,46.6933067 28.9707928,46.7402597 L29.0180807,46.7872128 C29.3018081,46.975025 29.5855355,47.1628372 29.9165508,47.3036963 L29.9165508,47.3036963 C30.3421419,47.4915085 30.9095967,47.7732268 31.5716273,48.0549451 L30.8623088,49.7922078 L30.5312935,49.6513487 C30.3421419,49.5574426 30.1057024,49.6513487 30.0111266,49.8391608 C29.9165508,50.026973 30.0111266,50.2617383 30.2002782,50.3556444 L30.5312935,50.4965035 L29.7273992,52.5154845 Z M37.5771905,58.8541459 C37.5771905,59.1828172 37.4826147,59.5114885 37.340751,59.7932068 C37.1988873,60.027972 36.9624478,60.1688312 36.7260083,60.1688312 C36.394993,60.1688312 36.1112656,59.981019 36.0166898,59.6523477 C36.0166898,59.6053946 35.9694019,59.4645355 35.922114,59.2297702 C36.0166898,59.2767233 36.1112656,59.2767233 36.2058414,59.2767233 C36.6314325,59.2767233 36.9624478,58.9480519 36.9624478,58.5724276 C36.9624478,58.1498501 36.6314325,57.8681319 36.2058414,57.8681319 C35.9694019,57.8681319 35.7802503,57.962038 35.6383866,58.1028971 C35.4019471,57.1638362 35.1655076,56.1308691 35.1655076,56.1308691 L35.0236439,56.1308691 L34.8344924,56.1308691 C34.8344924,56.1308691 34.5980529,57.1638362 34.3616134,58.1028971 C34.2197497,57.962038 34.0305981,57.8681319 33.8414465,57.8681319 C33.4158554,57.8681319 33.132128,58.1968032 33.132128,58.5724276 C33.132128,58.995005 33.4631433,59.2767233 33.8414465,59.2767233 C33.9360223,59.2767233 34.0305981,59.2767233 34.1251739,59.2297702 C34.077886,59.4175824 34.0305981,59.6053946 34.0305981,59.6523477 C33.9360223,59.9340659 33.6522949,60.1688312 33.3212796,60.1688312 C33.0375522,60.1688312 32.8011127,60.027972 32.659249,59.7932068 C32.5173853,59.5114885 32.4700974,59.1828172 32.4700974,58.8541459 L32.4700974,54.3466533 C33.9833102,54.8161838 35.8748261,55.3796204 37.6244784,55.7552448 L37.5771905,58.8541459 L37.5771905,58.8541459 Z M37.9554937,54.9100899 C35.3073713,54.3466533 32.2336579,53.3606394 30.4367177,52.7502498 C30.6258693,52.3276723 30.9095967,51.5764236 31.240612,50.7782218 L31.713491,50.966034 C31.713491,51.012987 31.713491,51.012987 31.713491,51.0599401 C31.713491,51.7172827 32.2809458,52.2807193 32.9429764,52.2807193 C33.605007,52.2807193 34.1724618,51.7172827 34.1724618,51.0599401 C34.1724618,50.4025974 33.605007,49.8391608 32.9429764,49.8391608 C32.5646732,49.8391608 32.2809458,49.98002 32.0445063,50.2617383 L31.5243394,50.026973 C31.8080668,49.3226773 32.0445063,48.6653347 32.2336579,48.2897103 C34.0305981,49.040959 36.3477051,49.9330669 38.5702364,50.6373626 C40.9346314,51.3416583 42.8261474,51.7642358 44.2447844,51.9050949 C41.7385257,53.1258741 38.1446453,54.8161838 37.9554937,54.9100899 M46.8929068,50.5904096 C46.6564673,50.8251748 46.0890125,51.0599401 44.906815,51.0599401 C45.7107093,50.4965035 46.4200278,49.8861139 47.0820584,49.1818182 C47.27121,49.8391608 47.2239221,50.3086913 46.8929068,50.5904096 M43.5354659,50.966034 C42.4005563,50.8251748 40.8400556,50.4495504 38.8066759,49.8391608 C38.7121001,49.7922078 38.6175243,49.7922078 38.5229485,49.7452547 C38.7121001,48.5714286 39.0904033,47.8201798 39.7524339,47.4445554 C40.7927677,46.975025 41.7385257,46.3176823 42.5897079,45.5194805 C43.3463143,44.8621379 44.1029207,44.0639361 44.6703755,42.9370629 C45.6161335,41.2937063 46.1835883,39.3686314 46.1835883,37.3496503 C46.1835883,36.4105894 46.0417246,35.4245754 45.8052851,34.5324675 L45.8052851,32.7482517 L46.325452,34.0629371 L46.8456189,33.8751249 C46.8456189,33.8751249 46.325452,32.6073926 46.325452,32.5604396 C46.4200278,32.5134865 49.2573018,31.3866134 49.2573018,31.3866134 L49.0681502,30.8701299 L49.0208623,30.8701299 L45.852573,32.1378621 L45.852573,31.9030969 L47.9805285,28.8981019 L47.7913769,28.5694306 L47.744089,28.5694306 L45.852573,28.992008 L45.852573,25.4705295 C46.0417246,25.6583417 46.2308762,25.7992008 46.4200278,25.987013 C49.4464534,28.992008 51.1488178,33.02997 51.1488178,37.3026973 C51.1488178,40.0729271 50.4394993,42.8431568 49.0208623,45.2377622 C47.6968011,47.6323676 45.8052851,49.5574426 43.5354659,50.966034 M46.0417246,30.8231768 C46.0417246,30.8231768 45.9471488,30.964036 45.852573,31.1048951 L45.852573,30.5414585 C45.9471488,30.6823177 46.0417246,30.8231768 46.0417246,30.8231768 M45.8998609,29.6023976 C45.9944367,29.6023976 46.9401947,29.3676324 47.0820584,29.3206793 C46.9874826,29.4615385 46.4200278,30.2597403 46.3727399,30.3066933 C46.325452,30.2597403 45.9471488,29.6963037 45.8998609,29.6023976" id="Shape" fill="#000000"></path>
            <path d="M47.4585029,9.64566929 C46.8095132,8.65354331 45.7433159,8.22834646 44.955257,8.22834646 C43.8427033,8.22834646 42.6837931,8.7007874 41.5712394,9.17322835 C40.3196165,9.69291339 39.0216371,10.2125984 37.7236577,10.1181102 C37.862727,9.64566929 38.0481526,9.17322835 38.2799346,8.79527559 L37.4918757,8.41732283 C37.6309449,8.13385827 37.7700142,7.80314961 37.8163706,7.42519685 C37.7236577,7.37795276 36.6574604,7 34.9422734,7 C33.2270864,7 32.2536019,7.37795276 32.1608891,7.42519685 C32.2072455,7.80314961 32.2999583,8.13385827 32.4853839,8.41732283 L31.697325,8.79527559 C31.929107,9.17322835 32.1145327,9.64566929 32.2536019,10.1181102 C30.9556225,10.2598425 29.6576432,9.69291339 28.4060202,9.17322835 C27.2934665,8.7007874 26.1345563,8.22834646 25.0220026,8.22834646 C24.2339437,8.22834646 23.1677464,8.65354331 22.5187567,9.64566929 C22.0088362,10.4488189 21.5916286,11.9606299 22.7041823,14.3700787 L22.7041823,14.3700787 L22.7041823,14.3228346 L24.3266565,13.6141732 L24.4193693,13.8976378 C23.9094489,14.1338583 23.3995284,14.7480315 24.0021617,16.1653543 C25.3928538,15.5511811 25.4392103,14.7480315 25.2074282,14.2283465 L25.4855667,14.1338583 L26.1809127,15.7401575 L26.8762588,17.3464567 L26.5981204,17.4409449 C26.3663384,16.9212598 25.7637051,16.4015748 24.3730129,17.015748 C24.9756462,18.4330709 26.0418435,19 26.8762588,19 C28.3133074,19 29.3331483,18.1023622 29.1940791,17.2047244 C29.1013663,16.5433071 28.498733,16.3070866 28.266951,16.3543307 C27.9888126,16.4015748 27.8033869,16.7322835 27.8497433,16.9212598 C27.8497433,16.9685039 27.8960997,17.015748 27.8960997,17.0629921 L27.8497433,17.1102362 C27.4788921,17.0629921 27.1543973,16.7795276 27.0616844,16.4015748 C26.9689716,15.9291339 27.2934665,15.4566929 27.7570305,15.3622047 C28.035169,15.3149606 28.3133074,15.4094488 28.5450894,15.5984252 L28.6378022,15.4566929 C28.3596638,15.3149606 28.1742382,15.0787402 28.1278818,14.7480315 C27.9888126,13.992126 28.8232279,13.2362205 28.8695843,13.2362205 L28.8695843,13.2362205 L28.8695843,13.2362205 C28.8695843,13.2362205 29.9357816,13.6141732 30.0748508,14.3700787 C30.1212072,14.7007874 30.0284944,14.984252 29.8430688,15.2204724 L29.982138,15.3149606 C30.0748508,15.0787402 30.3066328,14.8425197 30.6311277,14.7952756 C31.0946917,14.7007874 31.5582558,15.0314961 31.6509686,15.503937 C31.7436814,15.8818898 31.5118994,16.3070866 31.1874046,16.4488189 L31.1410481,16.4015748 C31.1410481,16.3543307 31.1410481,16.3070866 31.1410481,16.2598425 C31.0946917,16.023622 30.8165533,15.8346457 30.5384149,15.8818898 C30.3066328,15.9291339 29.8430688,16.3543307 29.982138,17.015748 C30.21392,18.1496063 31.1410481,18.9527559 32.2536019,18.9527559 C33.3661556,18.9527559 34.5714222,18.007874 34.5714222,16.5905512 C32.948948,16.5905512 32.5780967,17.3464567 32.5780967,18.007874 L32.2536019,18.007874 L32.2536019,16.1181102 L32.2536019,14.2283465 L32.5780967,14.2283465 C32.5780967,14.8425197 32.9953044,15.6456693 34.5714222,15.6456693 C34.5714222,13.992126 33.8297197,13.6141732 33.18073,13.6141732 L33.18073,13.2834646 L34.7568478,13.2834646 L35.2667682,13.2834646 L36.842886,13.2834646 L36.842886,13.6141732 C36.2402528,13.6141732 35.4521939,14.0393701 35.4521939,15.6456693 C37.0746681,15.6456693 37.4455193,14.8897638 37.4455193,14.2283465 L37.7700142,14.2283465 L37.7700142,16.1181102 L37.7700142,18.007874 L37.5382321,18.007874 C37.5382321,17.3937008 37.1210245,16.5905512 35.5449067,16.5905512 C35.5449067,18.007874 36.7038168,18.9527559 37.862727,18.9527559 C38.9752807,18.9527559 39.9487652,18.1496063 40.1341908,17.015748 C40.2732601,16.3543307 39.809696,15.8818898 39.577914,15.8818898 C39.2997755,15.8346457 39.0216371,16.023622 38.9752807,16.2598425 C38.9752807,16.3070866 38.9752807,16.3543307 38.9752807,16.4015748 L38.9289243,16.4488189 C38.6044295,16.2598425 38.3726474,15.8818898 38.4653602,15.503937 C38.558073,15.0314961 39.0216371,14.7007874 39.4852012,14.7952756 C39.7633396,14.8425197 39.9951216,15.0314961 40.1341908,15.3149606 L40.2732601,15.2204724 C40.0878344,14.984252 39.9951216,14.7007874 40.041478,14.3700787 C40.1805472,13.6141732 41.2467446,13.2362205 41.2467446,13.2362205 C41.2467446,13.2362205 42.1275163,13.992126 41.9884471,14.7480315 C41.9420907,15.0787402 41.7103086,15.3149606 41.4785266,15.4566929 L41.5712394,15.5984252 C41.756665,15.4094488 42.0348035,15.3149606 42.3592983,15.3622047 C42.8228624,15.4566929 43.1473572,15.9291339 43.0546444,16.4015748 C42.9619316,16.8267717 42.6374367,17.1102362 42.2665855,17.1102362 L42.2202291,17.0629921 C42.2665855,17.015748 42.2665855,16.9685039 42.2665855,16.9212598 C42.3129419,16.6850394 42.1275163,16.4015748 41.8493778,16.3543307 C41.6175958,16.3070866 41.0149625,16.5433071 40.9222497,17.2047244 C40.7831805,18.1023622 41.8493778,19 43.24007,19 C44.0744853,19 45.1406826,18.4330709 45.7433159,17.015748 C44.3526238,16.4015748 43.7499905,16.9212598 43.5182084,17.4409449 L43.24007,17.3464567 L43.9354161,15.7401575 L44.6307622,14.1338583 L44.9089006,14.2283465 C44.6771186,14.7480315 44.723475,15.5511811 46.1141672,16.1653543 C46.7168004,14.7480315 46.20688,14.1338583 45.6969595,13.8976378 L45.7896723,13.6141732 L47.4121465,14.3228346 L47.4121465,14.3700787 L47.4121465,14.3700787 C48.385631,11.9133858 47.9684234,10.4488189 47.4585029,9.64566929 M32.5780967,11.7244094 C31.7900378,11.7244094 31.1410481,12.1496063 30.7701969,12.8110236 C30.3529892,12.0551181 29.4258611,11.5826772 28.5450894,11.7716535 C27.8960997,11.9133858 27.3398229,12.3858268 27.1080409,12.9527559 C26.7371896,12.3385827 26.0881999,11.9606299 25.3464974,11.9606299 C24.4193693,11.9606299 23.6313104,12.5748031 23.353172,13.4251969 C22.8432515,12.0551181 22.8432515,10.9212598 23.353172,10.1181102 C23.8630925,9.31496063 24.7438642,9.07874016 25.1147154,9.07874016 C26.0881999,9.07874016 27.1080409,9.50393701 28.1742382,9.92913386 C29.5649304,10.496063 31.0019789,11.1102362 32.5780967,10.8740157 C32.6244531,11.1574803 32.6708095,11.3937008 32.7171659,11.6771654 C32.6708095,11.7244094 32.6244531,11.7244094 32.5780967,11.7244094 M35.0349862,7.33070866 C35.4521939,7.33070866 35.8230451,7.66141732 35.8694015,8.08661417 C35.6376195,7.8976378 35.3594811,7.75590551 35.0349862,7.75590551 C34.7104914,7.75590551 34.4323529,7.8976378 34.2005709,8.08661417 C34.2469273,7.66141732 34.6177786,7.33070866 35.0349862,7.33070866 M35.0349862,8.13385827 C35.4521939,8.13385827 35.8230451,8.46456693 35.8694015,8.88976378 C35.6376195,8.7007874 35.3594811,8.55905512 35.0349862,8.55905512 C34.7104914,8.55905512 34.4323529,8.7007874 34.2005709,8.88976378 C34.2469273,8.46456693 34.6177786,8.13385827 35.0349862,8.13385827 M35.0349862,12.9055118 C34.5714222,12.9055118 34.2005709,12.5275591 34.2005709,12.0551181 C34.2005709,11.5826772 34.5714222,11.2047244 35.0349862,11.2047244 C35.4985503,11.2047244 35.8694015,11.5826772 35.8694015,12.0551181 C35.8694015,12.5275591 35.4985503,12.9055118 35.0349862,12.9055118 M35.8230451,11.0629921 C35.5912631,10.8740157 35.3131247,10.7795276 35.0349862,10.7795276 C34.7104914,10.7795276 34.4787094,10.8740157 34.2469273,11.0629921 C34.2005709,10.9685039 34.2005709,10.8740157 34.2005709,10.7795276 C34.2005709,10.3070866 34.5714222,9.92913386 35.0349862,9.92913386 C35.4985503,9.92913386 35.8694015,10.3070866 35.8694015,10.7795276 C35.8694015,10.8740157 35.8694015,10.9685039 35.8230451,11.0629921 M35.8694015,9.88188976 C35.6376195,9.69291339 35.3594811,9.5511811 35.0349862,9.5511811 C34.7104914,9.5511811 34.4323529,9.69291339 34.2005709,9.88188976 L34.2005709,9.83464567 C34.2005709,9.36220472 34.5714222,8.98425197 35.0349862,8.98425197 C35.4985503,8.98425197 35.8694015,9.36220472 35.8694015,9.83464567 C35.8694015,9.83464567 35.8694015,9.83464567 35.8694015,9.88188976 M46.7168004,13.4251969 C46.438662,12.5748031 45.6506031,11.9606299 44.723475,11.9606299 C43.9817725,11.9606299 43.3327828,12.3385827 42.9619316,12.9527559 C42.6837931,12.3858268 42.1738727,11.9133858 41.524883,11.7716535 C40.5977549,11.5826772 39.7169832,12.007874 39.2997755,12.8110236 C38.9289243,12.1968504 38.2799346,11.7244094 37.4918757,11.7244094 C37.4455193,11.7244094 37.3991629,11.7244094 37.3528065,11.7244094 C37.3991629,11.488189 37.4455193,11.2047244 37.4918757,10.9212598 C39.0679935,11.1574803 40.5050421,10.5433071 41.8957343,9.97637795 C42.9619316,9.5511811 43.9817725,9.12598425 44.955257,9.12598425 C45.3261083,9.12598425 46.20688,9.36220472 46.7168004,10.1653543 C47.2267209,10.9212598 47.2267209,12.0551181 46.7168004,13.4251969" id="Shape" fill="#000000"></path>
            <polygon id="Path" fill="#000000" points="39.5 23 39.5 23 39 23 39.2857143 23.7272727 39.5 23.7272727 39.5714286 23.7272727 39.5 24 39.5714286 23.8181818 39.6428571 23.8181818 39.7142857 23.7272727 40 23"></polygon>
            <polyline id="Path" fill="#000000" points="35.8666667 23.75 35.8 23.8125 35.8 24 35.3333333 23.9375 35.3333333 23.625 35 23.0625 35.0666667 23 35.6666667 23.3125 36 23.3125 36 23.75 35.8666667 23.6875"></polyline>
            <path d="M35.7,24 C35.6,24 35.5,23.9 35.5,23.8 C35.5,23.7 35.6,23.6 35.7,23.6 C35.8,23.6 35.8,23.6 35.9,23.7 L36,23.7 C36,23.7 36,23.6 36,23.5 C36,23.2 35.8,23 35.5,23 C35.2,23 35,23.2 35,23.5 C35,23.8 35.2,24 35.5,24 L35.7,24 C35.7,24 35.7,24 35.7,24" id="Path" fill="#000000"></path>
            <path d="M35,23.7 C35,23.6 34.9,23.5 34.8,23.5 C34.7,23.5 34.6,23.6 34.6,23.7 C34.6,23.8 34.6,23.8 34.7,23.9 L34.7,24 C34.7,24 34.6,24 34.5,24 C34.2,24 34,23.8 34,23.5 C34,23.2 34.2,23 34.5,23 C34.8,23 35,23.2 35,23.5 L35,23.7 L35,23.7" id="Path" fill="#000000"></path>
            <polyline id="Path" fill="#000000" points="35.8666667 33.25 35.8 33.1875 35.8 33 35.3333333 33.0625 35.3333333 33.3125 35 33.875 35.0666667 34 35.6666667 33.625 36 33.625 36 33.1875 35.8666667 33.25"></polyline>
            <path d="M35.7,33 C35.6,33 35.5,33.1 35.5,33.2 C35.5,33.3 35.6,33.4 35.7,33.4 C35.8,33.4 35.8,33.4 35.9,33.3 L36,33.3 C36,33.3 36,33.4 36,33.5 C36,33.8 35.8,34 35.5,34 C35.2,34 35,33.8 35,33.5 C35,33.2 35.2,33 35.5,33 L35.7,33 C35.7,33 35.7,33 35.7,33" id="Path" fill="#000000"></path>
            <path d="M35,33.3 C35,33.4 34.9,33.5 34.8,33.5 C34.7,33.5 34.6,33.4 34.6,33.3 C34.6,33.2 34.6,33.2 34.7,33.1 L34.7,33 C34.7,33 34.6,33 34.5,33 C34.2,33 34,33.2 34,33.5 C34,33.8 34.2,34 34.5,34 C34.8,34 35,33.8 35,33.5 L35,33.3 C35,33.3 35,33.3 35,33.3" id="Path" fill="#000000"></path>
            <polyline id="Path" fill="#000000" points="43.1333333 33.25 43.2 33.1875 43.2 33 43.6666667 33.0625 43.6666667 33.3125 44 33.875 43.9333333 34 43.3333333 33.625 43 33.625 43 33.1875 43.1333333 33.25"></polyline>
            <path d="M43.3,33 C43.4,33 43.5,33.1 43.5,33.2 C43.5,33.3 43.4,33.4 43.3,33.4 C43.2,33.4 43.2,33.4 43.1,33.3 L43,33.3 C43,33.3 43,33.4 43,33.5 C43,33.8 43.2,34 43.5,34 C43.8,34 44,33.8 44,33.5 C44,33.2 43.8,33 43.5,33 L43.3,33 C43.3,33 43.3,33 43.3,33" id="Path" fill="#000000"></path>
            <path d="M43,33.3 C43,33.4 43.1,33.5 43.2,33.5 C43.3,33.5 43.4,33.4 43.4,33.3 C43.4,33.2 43.4,33.2 43.3,33.1 L43.3,33 C43.4,33 43.4,33 43.5,33 C43.8,33 44,33.2 44,33.5 C44,33.8 43.8,34 43.5,34 C43.2,34 43,33.8 43,33.5 L43,33.3 C43,33.3 43,33.3 43,33.3" id="Path" fill="#000000"></path>
            <polyline id="Path" fill="#000000" points="43.1333333 23.75 43.2 23.8125 43.2 24 43.6666667 23.9375 43.6666667 23.625 44 23.0625 43.9333333 23 43.3333333 23.3125 43 23.3125 43 23.75 43.1333333 23.6875"></polyline>
            <path d="M43.3,24 C43.4,24 43.5,23.9 43.5,23.8 C43.5,23.7 43.4,23.6 43.3,23.6 C43.2,23.6 43.2,23.6 43.1,23.7 L43,23.7 C43,23.7 43,23.6 43,23.5 C43,23.2 43.2,23 43.5,23 C43.8,23 44,23.2 44,23.5 C44,23.8 43.8,24 43.5,24 L43.3,24 C43.3,24 43.3,24 43.3,24" id="Path" fill="#000000"></path>
            <path d="M43,23.7 C43,23.6 43.1,23.5 43.2,23.5 C43.3,23.5 43.4,23.6 43.4,23.7 C43.4,23.8 43.4,23.8 43.3,23.9 L43.3,24 C43.4,24 43.4,24 43.5,24 C43.8,24 44,23.8 44,23.5 C44,23.2 43.8,23 43.5,23 C43.2,23 43,23.2 43,23.5 L43,23.7 L43,23.7 Z" id="Path" fill="#000000"></path>
            <rect id="Rectangle" fill="#000000" x="39" y="23.95" width="1" height="1"></rect>
            <polygon id="Path" fill="#000000" points="39.6 24.8 39.4 24.8 39.1 24.2 39.9 24.2"></polygon>
            <path d="M40.8,24.4 L40.7,24.5 C40.6,24.5 40.5,24.4 40.5,24.3 C40.5,24.2 40.6,24.1 40.7,24.1 L40.5,24.1 C40.3,24.1 40.1,24.3 40.1,24.5 C40.1,24.7 40.3,24.9 40.5,24.9 C40.7,24.9 40.9,24.7 40.9,24.5 C40.8,24.5 40.8,24.5 40.8,24.4 L40.8,24.4 Z" id="Path" fill="#000000"></path>
            <path d="M39.2,24.4 L39.3,24.5 C39.4,24.5 39.5,24.4 39.5,24.3 C39.5,24.2 39.4,24.1 39.3,24.1 L39.5,24.1 C39.7,24.1 39.9,24.3 39.9,24.5 C39.9,24.7 39.7,24.9 39.5,24.9 C39.3,24.9 39.1,24.7 39.1,24.5 C39.2,24.5 39.2,24.5 39.2,24.4 L39.2,24.4 Z" id="Path" fill="#000000"></path>
            <polygon id="Path" fill="#000000" points="39.5 34 39.5 34 40 34 39.7142857 33.2727273 39.5 33.1818182 39.4285714 33.1818182 39.5714286 33 39.4285714 33.1818182 39.3571429 33.1818182 39.2857143 33.2727273 39 34"></polygon>
            <rect id="Rectangle" fill="#000000" x="39" y="32.95" width="1" height="1"></rect>
            <polygon id="Path" fill="#000000" points="39.4 32.15 39.6 32.15 39.9 32.85 39.1 32.85"></polygon>
            <path d="M39.2,32.6 L39.3,32.5 C39.4,32.5 39.5,32.6 39.5,32.7 C39.5,32.8 39.4,32.9 39.3,32.9 L39.5,32.9 C39.7,32.9 39.9,32.7 39.9,32.5 C39.9,32.3 39.7,32.1 39.5,32.1 C39.3,32.1 39.1,32.3 39.1,32.5 C39.2,32.5 39.2,32.5 39.2,32.6 L39.2,32.6 Z" id="Path" fill="#000000"></path>
            <path d="M40.8,32.6 L40.7,32.5 C40.6,32.5 40.5,32.6 40.5,32.7 C40.5,32.8 40.6,32.9 40.7,32.9 L40.5,32.9 C40.3,32.9 40.1,32.7 40.1,32.5 C40.1,32.3 40.3,32.1 40.5,32.1 C40.7,32.1 40.9,32.3 40.9,32.5 C40.8,32.5 40.8,32.5 40.8,32.6 L40.8,32.6 Z" id="Path" fill="#000000"></path>
            <polygon id="Path" fill="#000000" points="44 28.5 44 28.5 44 28 43.2 28.2857143 43.2 28.5 43.2 28.5714286 43 28.5 43.2 28.6428571 43.1 28.6428571 43.2 28.7142857 44 29"></polygon>
            <rect id="Rectangle" fill="#000000" x="42.95" y="28" width="1" height="1"></rect>
            <polygon id="Path" fill="#000000" points="42.2 28.6 42.2 28.4 42.8 28.1 42.8 28.9"></polygon>
            <polyline id="Path" fill="#000000" points="43.5 28.55 43.5 28.45 43.5 28.55 43.5 28.55"></polyline>
            <path d="M43.6,28.8 L43.5,28.7 C43.5,28.6 43.6,28.5 43.7,28.5 C43.8,28.5 43.9,28.6 43.9,28.7 L43.9,28.5 C43.9,28.3 43.7,28.1 43.5,28.1 C43.3,28.1 43.1,28.3 43.1,28.5 C43.1,28.7 43.3,28.9 43.5,28.9 C43.5,28.9 43.5,28.9 43.6,28.8 L43.6,28.8 Z" id="Path" fill="#000000"></path>
            <path d="M43.6,28.2 L43.5,28.3 C43.5,28.4 43.6,28.5 43.7,28.5 C43.8,28.5 43.9,28.4 43.9,28.3 L43.9,28.5 C43.9,28.7 43.7,28.9 43.5,28.9 C43.3,28.9 43.1,28.7 43.1,28.5 C43.1,28.3 43.3,28.1 43.5,28.1 C43.5,28.1 43.5,28.1 43.6,28.2 L43.6,28.2 Z" id="Path" fill="#000000"></path>
            <polygon id="Path" fill="#000000" points="35 28.5 35 28.5 35 28 35.8 28.2857143 35.8 28.5 35.8 28.5714286 36 28.5 35.8 28.6428571 35.9 28.6428571 35.8 28.7142857 35 29"></polygon>
            <rect id="Rectangle" fill="#000000" x="35.95" y="28" width="1" height="1"></rect>
            <polygon id="Path" fill="#000000" points="36.8 28.6 36.8 28.4 36.2 28.1 36.2 28.9"></polygon>
            <polyline id="Path" fill="#000000" points="36.5 28.55 36.5 28.45 36.5 28.55 36.5 28.55"></polyline>
            <path d="M36.4,28.8 L36.5,28.7 C36.5,28.6 36.4,28.5 36.3,28.5 C36.2,28.5 36.1,28.6 36.1,28.7 L36.1,28.5 C36.1,28.3 36.3,28.1 36.5,28.1 C36.7,28.1 36.9,28.3 36.9,28.5 C36.9,28.7 36.7,28.9 36.5,28.9 C36.5,28.9 36.4,28.9 36.4,28.8 L36.4,28.8 Z" id="Path" fill="#000000"></path>
            <path d="M36.4,28.2 L36.5,28.3 C36.5,28.4 36.4,28.5 36.3,28.5 C36.2,28.5 36.1,28.4 36.1,28.3 L36.1,28.5 C36.1,28.7 36.3,28.9 36.5,28.9 C36.7,28.9 36.9,28.7 36.9,28.5 C36.9,28.3 36.7,28.1 36.5,28.1 C36.5,28.1 36.4,28.1 36.4,28.2 L36.4,28.2 Z" id="Path" fill="#000000"></path>
            <g id="Group" transform="translate(19.000000, 67.000000)" fill="#000000">
                <polygon id="Path" points="3.65576844 0.664484452 3.65576844 12.5777414 18.0913669 12.5777414 18.0913669 0.664484452 21.7471354 0.664484452 21.7471354 28.3829787 18.0913669 28.3829787 18.0913669 15.710311 3.65576844 15.710311 3.65576844 28.3829787 0 28.3829787 0 0.664484452"></polygon>
                <path d="M26.2465427,14.2389525 C26.6683621,12.9574468 27.2776569,11.8657938 28.0744269,10.9165303 C28.8711969,9.96726678 29.9023111,9.20785597 31.1209006,8.68576105 C32.3394901,8.16366612 33.698686,7.87888707 35.2453573,7.87888707 C36.8388974,7.87888707 38.1980934,8.16366612 39.4166828,8.68576105 C40.5884035,9.20785597 41.6195177,9.96726678 42.4162877,10.9165303 C43.2130578,11.8657938 43.8692213,12.9574468 44.2441719,14.2389525 C44.6659914,15.5204583 44.8534667,16.8968903 44.8534667,18.3682488 C44.8534667,19.8396072 44.6659914,21.2160393 44.2441719,22.497545 C43.8223525,23.7790507 43.2130578,24.8707038 42.4162877,25.8199673 C41.6195177,26.7692308 40.5884035,27.4811784 39.4166828,28.0507365 C38.2449622,28.5728314 36.8388974,28.8576105 35.2453573,28.8576105 C33.698686,28.8576105 32.2926213,28.5728314 31.1209006,28.0507365 C29.9023111,27.5286416 28.9180658,26.7692308 28.0744269,25.8199673 C27.2776569,24.8707038 26.6214933,23.7790507 26.2465427,22.497545 C25.8247232,21.2160393 25.6372479,19.8396072 25.6372479,18.3682488 C25.6372479,16.8968903 25.8247232,15.5204583 26.2465427,14.2389525 Z M29.5742293,21.5957447 C29.9023111,22.5450082 30.3241306,23.3518822 30.8865565,23.9689034 C31.4489824,24.5859247 32.105146,25.1080196 32.8550472,25.4402619 C33.6049484,25.7725041 34.4017184,25.9623568 35.2453573,25.9623568 C36.0889962,25.9623568 36.8857662,25.7725041 37.6356674,25.4402619 C38.3855687,25.1080196 39.0417322,24.6333879 39.6041582,23.9689034 C40.1665841,23.3518822 40.5884035,22.5450082 40.9164853,21.5957447 C41.2445671,20.6464812 41.3851735,19.5548282 41.3851735,18.3682488 C41.3851735,17.1342062 41.2445671,16.0900164 40.9164853,15.1407529 C40.5884035,14.1914894 40.1665841,13.3846154 39.6041582,12.7675941 C39.0417322,12.1031097 38.3855687,11.6284779 37.6356674,11.2962357 C36.8857662,10.9639935 36.0889962,10.7741408 35.2453573,10.7741408 C34.4017184,10.7741408 33.6049484,10.9639935 32.8550472,11.2962357 C32.105146,11.6284779 31.4489824,12.1031097 30.8865565,12.7675941 C30.3241306,13.4320786 29.9023111,14.1914894 29.5742293,15.1407529 C29.2461476,16.0900164 29.1055411,17.1816694 29.1055411,18.3682488 C29.1055411,19.5548282 29.2461476,20.6464812 29.5742293,21.5957447 Z" id="Shape"></path>
                <path d="M51.3213647,8.30605565 L51.3213647,11.2487725 L51.4151024,11.2487725 C52.9149048,8.9705401 55.024002,7.8314239 57.8361315,7.8314239 C59.054721,7.8314239 60.1795729,8.06873977 61.1638182,8.5908347 C62.1480636,9.11292962 62.851096,9.96726678 63.2729154,11.2487725 C63.929079,10.1571195 64.8195867,9.30278232 65.8975697,8.73322422 C66.9755527,8.11620295 68.1941421,7.8314239 69.4596004,7.8314239 C70.4438458,7.8314239 71.3343535,7.92635025 72.1779924,8.16366612 C72.9747624,8.400982 73.6777948,8.73322422 74.2402207,9.20785597 C74.8026466,9.68248773 75.2713349,10.2520458 75.5994167,11.0114566 C75.9274985,11.7708674 76.0681049,12.6252046 76.0681049,13.6693944 L76.0681049,28.3829787 L72.7872871,28.3829787 L72.7872871,15.2356792 C72.7872871,14.6186579 72.7404183,14.0490998 72.6466806,13.4795417 C72.552943,12.9574468 72.3654677,12.4828151 72.0842547,12.0556465 C71.8030418,11.6759411 71.4280911,11.3436989 70.9125341,11.106383 C70.396977,10.8690671 69.7876822,10.7741408 68.9909122,10.7741408 C67.3973721,10.7741408 66.1319138,11.2487725 65.1945373,12.1505728 C64.2571607,13.0523732 63.8353413,14.3338789 63.8353413,15.9001637 L63.8353413,28.3829787 L60.5545235,28.3829787 L60.5545235,15.2356792 C60.5545235,14.5711948 60.5076546,14.0016367 60.3670482,13.4320786 C60.2733105,12.9099836 60.0389664,12.4353519 59.7577534,12.0081833 C59.4765405,11.6284779 59.1015899,11.2962357 58.6329016,11.0589198 C58.1642133,10.8216039 57.5549186,10.7266776 56.8050174,10.7266776 C55.8676408,10.7266776 55.0708708,10.9165303 54.3678384,11.2962357 C53.7116748,11.6759411 53.1492489,12.1505728 52.7274295,12.6726678 C52.3056101,13.1947627 51.9775283,13.7643208 51.790053,14.3813421 C51.6025777,14.9509002 51.50884,15.4255319 51.50884,15.8527005 L51.50884,28.3355155 L48.2280222,28.3355155 L48.2280222,8.30605565 L51.3213647,8.30605565 Z" id="Path"></path>
                <path d="M94.5344225,27.101473 C93.03462,28.2405892 91.2067358,28.8101473 88.9570322,28.8101473 C87.3634921,28.8101473 86.0042961,28.5728314 84.8325754,28.0507365 C83.6608548,27.5286416 82.6766094,26.8166939 81.8798394,25.8674304 C81.0830693,24.9181669 80.4737746,23.8265139 80.098824,22.5450082 C79.7238734,21.2635025 79.4895293,19.8396072 79.4426604,18.3207856 C79.4426604,16.801964 79.6770046,15.3780687 80.1456928,14.1440262 C80.6143811,12.8625205 81.2705447,11.7708674 82.0673147,10.8216039 C82.9109536,9.87234043 83.8951989,9.1603928 85.0200508,8.63829787 C86.1449026,8.11620295 87.4103609,7.87888707 88.7695568,7.87888707 C90.5505722,7.87888707 92.0035059,8.25859247 93.1752265,8.9705401 C94.3469472,9.7299509 95.2843237,10.6317512 95.9873561,11.7708674 C96.6903885,12.9099836 97.1590767,14.1440262 97.4402897,15.5204583 C97.7215027,16.8494272 97.8152403,18.1309329 97.7683715,19.3649755 L82.9109536,19.3649755 C82.8640847,20.2667758 83.0046912,21.0736498 83.2390354,21.8805237 C83.4733795,22.6873977 83.8483301,23.3518822 84.3638872,23.9689034 C84.8794443,24.5859247 85.5356078,25.0605565 86.3323779,25.4402619 C87.1291479,25.8199673 88.0665245,25.9623568 89.1445075,25.9623568 C90.5037034,25.9623568 91.6754241,25.6301146 92.5190629,25.0130933 C93.4095706,24.3486088 93.9719966,23.3993453 94.2532095,22.0703764 L97.4871585,22.0703764 C96.9716014,24.2536825 95.9873561,25.9623568 94.5344225,27.101473 Z M93.7376524,14.1914894 C93.4564395,13.4795417 93.03462,12.9099836 92.5659318,12.3878887 C92.0503747,11.8657938 91.4879488,11.4860884 90.7849164,11.2013093 C90.1287528,10.9165303 89.3788516,10.7741408 88.5352127,10.7741408 C87.6915738,10.7741408 86.9416726,10.9165303 86.2386402,11.2013093 C85.5824767,11.4860884 84.9731819,11.913257 84.5044937,12.4353519 C84.0358054,12.9574468 83.613986,13.5744681 83.332773,14.2389525 C83.0515601,14.903437 82.8640847,15.6628478 82.8172159,16.4222586 L94.2063407,16.4222586 C94.2063407,15.6628478 94.0188654,14.903437 93.7376524,14.1914894 Z" id="Shape"></path>
                <path d="M110.657299,9.06546645 C111.219725,7.30932897 112.016495,5.79050736 113.141346,4.41407529 C114.219329,3.08510638 115.625394,1.99345336 117.265803,1.18657938 C118.906212,0.379705401 120.827834,0 122.9838,0 C125.139766,0 127.061388,0.379705401 128.701797,1.18657938 C130.342206,1.99345336 131.701402,3.08510638 132.826253,4.41407529 C133.904236,5.74304419 134.747875,7.30932897 135.310301,9.06546645 C135.872727,10.8216039 136.15394,12.6252046 136.15394,14.5237316 C136.15394,16.4222586 135.872727,18.2258592 135.310301,19.9819967 C134.747875,21.7381342 133.951105,23.2569558 132.826253,24.6333879 C131.74827,25.9623568 130.342206,27.0540098 128.701797,27.8134206 C127.061388,28.6202946 125.139766,29 122.9838,29 C120.827834,29 118.906212,28.6202946 117.265803,27.8134206 C115.625394,27.0065466 114.266198,25.9623568 113.141346,24.6333879 C112.063363,23.304419 111.219725,21.7381342 110.657299,19.9819967 C110.094873,18.2258592 109.81366,16.4222586 109.81366,14.5237316 C109.81366,12.6252046 110.094873,10.8216039 110.657299,9.06546645 Z M113.984985,18.6530278 C114.359936,20.0294599 114.922362,21.2160393 115.672263,22.3076923 C116.422164,23.3993453 117.40641,24.2536825 118.624999,24.9181669 C119.843589,25.5826514 121.249653,25.9148936 122.936931,25.9148936 C124.57734,25.9148936 126.030274,25.5826514 127.248863,24.9181669 C128.467453,24.2536825 129.451698,23.3993453 130.201599,22.3076923 C130.9515,21.2160393 131.513926,19.9819967 131.888877,18.6530278 C132.263828,17.2765957 132.404434,15.9001637 132.404434,14.5237316 C132.404434,13.1472995 132.216959,11.7708674 131.888877,10.3944354 C131.513926,9.01800327 130.9515,7.8314239 130.201599,6.73977087 C129.451698,5.64811784 128.467453,4.79378069 127.248863,4.12929624 C126.030274,3.46481178 124.624209,3.13256956 122.936931,3.13256956 C121.296522,3.13256956 119.843589,3.46481178 118.624999,4.12929624 C117.40641,4.79378069 116.422164,5.64811784 115.672263,6.73977087 C114.922362,7.8314239 114.359936,9.06546645 113.984985,10.3944354 C113.610035,11.7708674 113.469428,13.1472995 113.469428,14.5237316 C113.469428,15.9001637 113.656904,17.2765957 113.984985,18.6530278 Z" id="Shape"></path>
                <path d="M137.513136,11.2013093 L137.513136,8.30605565 L140.840823,8.30605565 L140.840823,5.31587561 C140.840823,3.70212766 141.309511,2.46808511 142.246888,1.61374795 C143.184264,0.759410802 144.54346,0.332242226 146.324475,0.332242226 C146.652557,0.332242226 146.980639,0.379705401 147.35559,0.427168576 C147.73054,0.474631751 148.105491,0.569558101 148.386704,0.664484452 L148.386704,3.55973813 C148.105491,3.46481178 147.777409,3.36988543 147.449327,3.36988543 C147.121245,3.32242226 146.793164,3.32242226 146.511951,3.32242226 C145.715181,3.32242226 145.105886,3.46481178 144.684067,3.79705401 C144.262247,4.12929624 144.027903,4.69885434 144.027903,5.60065466 L144.027903,8.400982 L147.871147,8.400982 L147.871147,11.2962357 L144.027903,11.2962357 L144.027903,28.4779051 L140.747085,28.4779051 L140.747085,11.2962357 L137.513136,11.2962357 L137.513136,11.2013093 Z" id="Path"></path>
                <path d="M147.683671,11.2013093 L147.683671,8.30605565 L151.011358,8.30605565 L151.011358,5.31587561 C151.011358,3.70212766 151.480046,2.46808511 152.417423,1.61374795 C153.354799,0.759410802 154.713995,0.332242226 156.495011,0.332242226 C156.823093,0.332242226 157.151174,0.379705401 157.526125,0.427168576 C157.901076,0.474631751 158.276026,0.569558101 158.557239,0.664484452 L158.557239,3.55973813 C158.276026,3.46481178 157.947944,3.36988543 157.619863,3.36988543 C157.291781,3.32242226 156.963699,3.32242226 156.682486,3.32242226 C155.885716,3.32242226 155.276421,3.46481178 154.854602,3.79705401 C154.432782,4.12929624 154.198438,4.69885434 154.198438,5.60065466 L154.198438,8.400982 L158.041682,8.400982 L158.041682,11.2962357 L154.292176,11.2962357 L154.292176,28.4779051 L151.011358,28.4779051 L151.011358,11.2962357 L147.683671,11.2962357 L147.683671,11.2013093 Z" id="Path"></path>
                <path d="M160.760074,4.69885434 L160.760074,0.664484452 L164.040892,0.664484452 L164.040892,4.69885434 L160.760074,4.69885434 Z M164.040892,8.30605565 L164.040892,28.3829787 L160.760074,28.3829787 L160.760074,8.30605565 L164.040892,8.30605565 Z" id="Shape"></path>
                <path d="M180.444981,11.8183306 C179.648211,11.106383 178.523359,10.7741408 177.164163,10.7741408 C175.992442,10.7741408 175.008197,11.0114566 174.211427,11.4386252 C173.414657,11.8657938 172.805362,12.4828151 172.336674,13.1947627 C171.867986,13.9067103 171.539904,14.7610475 171.30556,15.710311 C171.118085,16.6595745 170.977478,17.608838 170.977478,18.6530278 C170.977478,19.6022913 171.071216,20.5040917 171.30556,21.3584288 C171.539904,22.2602291 171.867986,23.0196399 172.336674,23.6841244 C172.805362,24.3486088 173.414657,24.9181669 174.117689,25.3453355 C174.867591,25.7725041 175.758098,25.9623568 176.742344,25.9623568 C178.335884,25.9623568 179.601342,25.5351882 180.538719,24.6808511 C181.429226,23.8265139 181.991652,22.6399345 182.225996,21.0736498 L185.553683,21.0736498 C185.178732,23.5417349 184.288225,25.487725 182.835291,26.8166939 C181.382357,28.1456628 179.366998,28.8576105 176.836081,28.8576105 C175.336279,28.8576105 173.977083,28.6202946 172.852231,28.0981997 C171.68051,27.6235679 170.696265,26.9116203 169.946364,26.00982 C169.149594,25.1080196 168.587168,24.0163666 168.165348,22.7823241 C167.790398,21.5482815 167.556054,20.1718494 167.556054,18.6530278 C167.556054,17.1342062 167.743529,15.7577741 168.11848,14.4288052 C168.49343,13.0998363 169.102725,11.9607201 169.852626,11.0114566 C170.649396,10.0621931 171.586773,9.25531915 172.805362,8.73322422 C173.977083,8.16366612 175.336279,7.87888707 176.929819,7.87888707 C178.054671,7.87888707 179.085785,8.0212766 180.07003,8.30605565 C181.054276,8.5908347 181.944783,9.01800327 182.694685,9.58756137 C183.444586,10.1571195 184.053881,10.8690671 184.569438,11.7234043 C185.038126,12.5777414 185.366208,13.6219313 185.506814,14.8085106 L182.132259,14.8085106 C181.804177,13.4795417 181.28862,12.4828151 180.444981,11.8183306 Z" id="Path"></path>
                <path d="M202.754542,27.101473 C201.25474,28.2405892 199.426856,28.8101473 197.177152,28.8101473 C195.583612,28.8101473 194.224416,28.5728314 193.052695,28.0507365 C191.880975,27.5286416 190.896729,26.8166939 190.099959,25.8674304 C189.303189,24.9181669 188.693894,23.8265139 188.318944,22.5450082 C187.943993,21.2635025 187.709649,19.8396072 187.66278,18.3207856 C187.66278,16.801964 187.897124,15.3780687 188.365813,14.1440262 C188.834501,12.8625205 189.490664,11.7708674 190.287434,10.8216039 C191.131073,9.87234043 192.115319,9.1603928 193.24017,8.63829787 C194.365022,8.11620295 195.630481,7.87888707 196.989677,7.87888707 C198.770692,7.87888707 200.223626,8.25859247 201.395346,8.9705401 C202.567067,9.7299509 203.504443,10.6317512 204.207476,11.7708674 C204.910508,12.9099836 205.379196,14.1440262 205.660409,15.5204583 C205.941622,16.8494272 206.03536,18.1309329 205.988491,19.3649755 L191.131073,19.3649755 C191.084204,20.2667758 191.224811,21.0736498 191.459155,21.8805237 C191.693499,22.6873977 192.06845,23.3518822 192.584007,23.9689034 C193.099564,24.5859247 193.755728,25.0605565 194.552498,25.4402619 C195.349268,25.8199673 196.286644,25.9623568 197.364627,25.9623568 C198.723823,25.9623568 199.895544,25.6301146 200.739183,25.0130933 C201.62969,24.3486088 202.192116,23.3993453 202.473329,22.0703764 L205.707278,22.0703764 C205.191721,24.2536825 204.254345,25.9623568 202.754542,27.101473 Z M202.004641,14.1914894 C201.723428,13.4795417 201.301609,12.9099836 200.83292,12.3878887 C200.317363,11.8657938 199.754937,11.4860884 199.051905,11.2013093 C198.395741,10.9165303 197.64584,10.7741408 196.802201,10.7741408 C195.958562,10.7741408 195.208661,10.9165303 194.505629,11.2013093 C193.849465,11.4860884 193.24017,11.913257 192.771482,12.4353519 C192.302794,12.9574468 191.880975,13.5744681 191.599762,14.2389525 C191.318549,14.903437 191.131073,15.6628478 191.084204,16.4222586 L202.473329,16.4222586 C202.473329,15.6628478 202.285854,14.903437 202.004641,14.1914894 Z" id="Shape"></path>
            </g>
        </g>
    </g>
</svg>