<?xml version="1.0" encoding="UTF-8"?>
<svg width="287px" height="50px" viewBox="0 0 287 50" version="1.1" xmlns="http://www.w3.org/2000/svg" xmlns:xlink="http://www.w3.org/1999/xlink">
    <title>Banco_Santander_Logotipo</title>
    <g id="All-clients" stroke="none" stroke-width="1" fill="none" fill-rule="evenodd">
        <g id="Banco_Santander_Logotipo" fill="#EA1D25" fill-rule="nonzero">
            <path d="M37.9518072,23.0120482 C37.8313253,21.2048193 37.3493976,19.3975904 36.3855422,17.8313253 L28.1927711,3.4939759 C27.5903614,2.40963855 27.1084337,1.20481928 26.8674699,0 L26.5060241,0.602409639 C24.4578313,4.09638554 24.4578313,8.55421687 26.5060241,12.0481928 L33.1325301,23.4939759 C35.1807229,26.9879518 35.1807229,31.4457831 33.1325301,34.939759 L32.7710843,35.5421687 C32.5301205,34.3373494 32.0481928,33.1325301 31.4457831,32.0481928 L25.4216867,21.5662651 L21.5662651,14.8192771 C20.9638554,13.7349398 20.4819277,12.5301205 20.2409639,11.3253012 L19.8795181,11.9277108 C17.8313253,15.4216867 17.8313253,19.7590361 19.8795181,23.373494 L19.8795181,23.373494 L26.5060241,34.8192771 C28.5542169,38.313253 28.5542169,42.7710843 26.5060241,46.2650602 L26.1445783,46.8674699 C25.9036145,45.6626506 25.4216867,44.4578313 24.8192771,43.373494 L16.5060241,29.0361446 C15.4216867,27.1084337 14.939759,24.939759 14.939759,22.7710843 C6.14457831,25.060241 0,30 0,35.6626506 C0,43.6144578 11.8072289,50 26.3855422,50 C40.9638554,50 52.7710843,43.6144578 52.7710843,35.6626506 C52.8915663,30.2409639 46.8674699,25.3012048 37.9518072,23.0120482 Z M62.8915663,47.4698795 C63.0120482,45.4216867 63.253012,44.0963855 63.8554217,42.4096386 C66.626506,43.7349398 70.2409639,44.3373494 72.8915663,44.3373494 C77.4698795,44.3373494 80.1204819,42.8915663 80.1204819,39.8795181 C80.1204819,36.9879518 78.1927711,35.6626506 73.6144578,33.6144578 L71.0843373,32.6506024 C66.3855422,30.6024096 63.253012,27.9518072 63.253012,22.7710843 C63.253012,17.1084337 67.2289157,13.4939759 75.1807229,13.4939759 C78.4337349,13.4939759 81.4457831,13.9759036 84.2168675,14.939759 C84.0963855,16.8674699 83.7349398,18.4337349 83.253012,19.8795181 C80.6024096,18.9156627 77.3493976,18.4337349 75.060241,18.4337349 C70.7228916,18.4337349 68.7951807,20.1204819 68.7951807,22.7710843 C68.7951807,25.3012048 70.7228916,26.8674699 74.2168675,28.313253 L76.8674699,29.3975904 C83.1325301,32.0481928 85.7831325,34.939759 85.7831325,39.7590361 C85.7831325,45.4216867 81.4457831,49.3975904 73.0120482,49.3975904 C69.0361446,49.3975904 65.6626506,48.7951807 62.8915663,47.4698795 L62.8915663,47.4698795 Z M112.409639,23.7349398 L112.409639,48.5542169 L107.349398,48.5542169 L107.108434,45.5421687 C105.662651,47.7108434 103.614458,49.1566265 100.120482,49.1566265 C93.6144578,49.1566265 89.1566265,44.3373494 89.1566265,36.0240964 C89.1566265,27.3493976 93.8554217,22.2891566 103.012048,22.2891566 C106.626506,22.4096386 109.638554,22.7710843 112.409639,23.7349398 Z M106.987952,42.8915663 L106.987952,27.3493976 C105.903614,27.1084337 104.578313,27.1084337 103.012048,27.1084337 C97.3493976,27.1084337 94.6987952,30.6024096 94.6987952,36.1445783 C94.6987952,41.2048193 96.746988,44.8192771 101.566265,44.8192771 C103.855422,44.6987952 105.542169,43.9759036 106.987952,42.8915663 Z M140.361446,31.9277108 L140.361446,48.5542169 L134.939759,48.5542169 L134.939759,32.8915663 C134.939759,28.9156627 133.614458,27.1084337 128.192771,27.1084337 C126.86747,27.1084337 125.421687,27.2289157 123.855422,27.4698795 L123.855422,48.5542169 L118.433735,48.5542169 L118.433735,23.7349398 C121.927711,22.8915663 125.783133,22.2891566 128.313253,22.2891566 C137.46988,22.4096386 140.361446,25.9036145 140.361446,31.9277108 Z M155.542169,44.5783133 C157.108434,44.5783133 158.674699,44.3373494 159.759036,43.8554217 C159.638554,45.3012048 159.39759,46.9879518 159.156627,48.4337349 C157.710843,49.0361446 156.024096,49.2771084 154.578313,49.2771084 C149.277108,49.2771084 145.903614,46.8674699 145.903614,40.8433735 L145.903614,14.6987952 C147.590361,14.0963855 149.638554,13.8554217 151.325301,13.8554217 L151.325301,23.253012 L160,23.253012 C159.879518,24.939759 159.759036,26.5060241 159.518072,27.9518072 L151.325301,27.9518072 L151.325301,40.1204819 C151.325301,43.253012 152.891566,44.5783133 155.542169,44.5783133 L155.542169,44.5783133 Z M184.819277,23.7349398 L184.819277,48.5542169 L179.759036,48.5542169 L179.518072,45.5421687 C178.072289,47.7108434 176.024096,49.1566265 172.53012,49.1566265 C166.024096,49.1566265 161.566265,44.3373494 161.566265,36.0240964 C161.566265,27.3493976 166.26506,22.2891566 175.421687,22.2891566 C179.036145,22.4096386 181.927711,22.7710843 184.819277,23.7349398 L184.819277,23.7349398 Z M179.277108,42.8915663 L179.277108,27.3493976 C178.192771,27.1084337 176.86747,27.1084337 175.301205,27.1084337 C169.638554,27.1084337 166.987952,30.6024096 166.987952,36.1445783 C166.987952,41.2048193 169.036145,44.8192771 173.855422,44.8192771 C176.144578,44.6987952 177.951807,43.9759036 179.277108,42.8915663 L179.277108,42.8915663 Z M212.771084,31.9277108 L212.771084,48.5542169 L207.228916,48.5542169 L207.228916,32.8915663 C207.228916,28.9156627 205.903614,27.1084337 200.481928,27.1084337 C199.156627,27.1084337 197.710843,27.2289157 196.144578,27.4698795 L196.144578,48.5542169 L190.722892,48.5542169 L190.722892,23.7349398 C194.216867,22.8915663 198.072289,22.2891566 200.60241,22.2891566 C209.759036,22.4096386 212.771084,25.9036145 212.771084,31.9277108 L212.771084,31.9277108 Z M240.361446,13.8554217 L240.361446,48.5542169 L235.301205,48.5542169 L235.060241,45.4216867 C233.614458,47.7108434 231.566265,49.1566265 227.951807,49.1566265 C221.445783,49.1566265 216.987952,44.3373494 216.987952,36.0240964 C216.987952,27.3493976 221.686747,22.2891566 230.843373,22.2891566 C232.289157,22.2891566 233.614458,22.4096386 234.939759,22.6506024 L234.939759,14.4578313 C236.626506,13.9759036 238.554217,13.8554217 240.361446,13.8554217 L240.361446,13.8554217 Z M234.939759,42.8915663 L234.939759,27.5903614 C233.493976,27.3493976 232.048193,27.1084337 230.60241,27.1084337 C225.180723,27.1084337 222.650602,30.4819277 222.650602,36.1445783 C222.650602,41.2048193 224.698795,44.8192771 229.518072,44.8192771 C231.686747,44.6987952 233.493976,43.9759036 234.939759,42.8915663 Z M267.831325,37.9518072 L250.361446,37.9518072 C251.084337,42.4096386 253.614458,44.4578313 258.554217,44.4578313 C261.566265,44.4578313 264.578313,43.8554217 267.228916,42.5301205 C266.987952,43.9759036 266.746988,45.9036145 266.385542,47.4698795 C263.855422,48.5542169 261.325301,49.0361446 258.313253,49.0361446 C249.156627,49.0361446 244.819277,43.9759036 244.819277,35.5421687 C244.819277,28.1927711 248.192771,22.2891566 256.86747,22.2891566 C264.698795,22.2891566 268.072289,27.3493976 268.072289,33.6144578 C268.072289,35.3012048 268.072289,36.5060241 267.831325,37.9518072 L267.831325,37.9518072 Z M250.361446,33.373494 L262.650602,33.373494 C262.650602,29.2771084 260.481928,26.8674699 256.746988,26.8674699 C252.771084,26.9879518 250.722892,29.1566265 250.361446,33.373494 L250.361446,33.373494 Z M286.987952,22.6506024 C286.987952,24.3373494 286.746988,26.2650602 286.506024,27.3493976 C285.180723,27.2289157 283.975904,27.1084337 282.409639,27.1084337 C281.084337,27.1084337 279.759036,27.2289157 278.433735,27.3493976 L278.433735,48.5542169 L273.012048,48.5542169 L273.012048,23.7349398 C275.301205,22.8915663 279.277108,22.2891566 282.289157,22.2891566 C283.855422,22.4096386 285.783133,22.4096386 286.987952,22.6506024 L286.987952,22.6506024 Z" id="path6"></path>
        </g>
    </g>
</svg>